<svg width="280" height="50" viewBox="0 0 280 50" fill="none" xmlns="http://www.w3.org/2000/svg">
<rect x="0.75" y="0.75" width="278.5" height="48.5" rx="14.25" fill="white" stroke="#FFC701" stroke-width="1.5"/>
<path d="M261.691 41L253.675 32.7339C252.626 33.672 251.401 34.4027 250.001 34.9259C248.602 35.449 247.115 35.7106 245.54 35.7106C241.762 35.7106 238.56 34.3576 235.936 31.6515C233.312 28.9453 232 25.68 232 21.8553C232 18.0307 233.312 14.7653 235.936 12.0592C238.56 9.35306 241.744 8 245.488 8C249.197 8 252.354 9.35306 254.961 12.0592C257.568 14.7653 258.871 18.0307 258.871 21.8553C258.871 23.4068 258.626 24.9042 258.136 26.3475C257.646 27.7907 256.912 29.1438 255.932 30.4066L264 38.6186L261.691 41ZM245.488 32.4633C248.322 32.4633 250.736 31.426 252.73 29.3513C254.725 27.2766 255.722 24.7779 255.722 21.8553C255.722 18.9327 254.725 16.4341 252.73 14.3594C250.736 12.2847 248.322 11.2473 245.488 11.2473C242.619 11.2473 240.178 12.2847 238.167 14.3594C236.155 16.4341 235.149 18.9327 235.149 21.8553C235.149 24.7779 236.155 27.2766 238.167 29.3513C240.178 31.426 242.619 32.4633 245.488 32.4633Z" fill="#FFC701"/>
</svg>
