<svg width="179" height="134" viewBox="0 0 179 134" fill="none" xmlns="http://www.w3.org/2000/svg">
<path d="M2.25635 49.7827L28.8295 88.5367V132.627L2.25635 91.2091V49.7827Z" fill="white"/>
<path d="M1.20942 50.3963C4.03583 54.522 6.87031 58.6477 9.69673 62.7734C14.3994 69.628 19.102 76.4826 23.7966 83.3372C25.0447 85.1538 26.2929 86.9785 27.541 88.7951C27.5893 88.8596 27.694 89.1019 27.7745 89.1342C27.5169 89.0292 27.6699 88.2057 27.6135 88.7789C27.541 89.5136 27.6135 90.2968 27.6135 91.0315C27.6135 98.5804 27.6135 106.137 27.6135 113.686C27.6135 117.675 27.6135 121.663 27.6135 125.652C27.6135 127.848 27.4766 130.1 27.6135 132.296C27.6215 132.401 27.6135 132.514 27.6135 132.619C28.3624 132.418 29.1112 132.216 29.8682 132.006C27.2753 127.961 24.6743 123.908 22.0814 119.863C17.5479 112.798 13.0224 105.742 8.48885 98.6773C7.0233 96.3924 5.55775 94.1076 4.0922 91.8227C3.9231 91.5563 3.601 90.757 3.31111 90.6036C3.47216 90.6924 3.38358 91.4755 3.46411 91.0073C3.50437 90.7408 3.46411 90.4259 3.46411 90.1595C3.46411 83.1999 3.46411 76.2323 3.46411 69.2727C3.46411 62.8864 3.60905 56.4758 3.46411 50.0976C3.46411 49.9926 3.46411 49.8796 3.46411 49.7746C3.46411 48.2164 1.04837 48.2164 1.04837 49.7746C1.04837 55.2083 1.04837 60.6419 1.04837 66.0755C1.04837 73.6971 1.04837 81.3268 1.04837 88.9485C1.04837 90.0465 0.839002 91.2253 1.45099 92.178C2.6186 93.9945 3.77816 95.8111 4.94576 97.6197C9.38268 104.539 13.8196 111.45 18.2565 118.369C21.3809 123.238 24.4408 128.155 27.6296 132.983C27.686 133.063 27.7343 133.144 27.7826 133.225C28.4187 134.218 30.0373 133.855 30.0373 132.611C30.0373 127.323 30.0373 122.035 30.0373 116.738C30.0373 108.729 30.0373 100.72 30.0373 92.7108C30.0373 91.637 30.0373 90.5632 30.0373 89.4894C30.0373 88.9646 30.1098 88.3833 29.8682 87.8989C29.1998 86.5586 28.0966 85.3072 27.2511 84.08C22.7176 77.4676 18.184 70.8471 13.6424 64.2347C10.2523 59.2855 6.91057 54.304 3.46411 49.3952C3.41579 49.3386 3.35943 49.2579 3.30306 49.1691C2.42534 47.8934 0.331695 49.1045 1.20942 50.3963Z" fill="black"/>
<path d="M28.8293 88.5369L176.995 58.6641V103.288L28.8293 132.628V88.5369Z" fill="white"/>
<path d="M29.1516 89.7074C30.4722 89.441 31.7928 89.1746 33.1134 88.9081C36.7048 88.1815 40.2962 87.4629 43.8876 86.7363C49.2022 85.6625 54.5088 84.5968 59.8234 83.523C66.3057 82.215 72.7879 80.9071 79.2702 79.5991C86.3725 78.1701 93.4747 76.7329 100.577 75.3039C107.744 73.8587 114.91 72.4135 122.085 70.9683C128.769 69.62 135.452 68.2716 142.144 66.9233C147.797 65.7849 153.442 64.6465 159.094 63.5081C163.161 62.6846 167.227 61.8692 171.286 61.0456C173.186 60.6581 175.207 60.424 177.067 59.883C177.148 59.8588 177.237 59.8507 177.317 59.8346C176.81 59.447 176.294 59.0595 175.787 58.6639C175.787 63.6858 175.787 68.7157 175.787 73.7376C175.787 81.7467 175.787 89.7559 175.787 97.765C175.787 99.6059 175.787 101.447 175.787 103.287C176.085 102.9 176.375 102.512 176.673 102.117C175.352 102.375 174.032 102.642 172.711 102.9C169.112 103.61 165.52 104.321 161.921 105.039C156.598 106.097 151.283 107.147 145.961 108.204C139.503 109.48 133.045 110.764 126.578 112.039C119.468 113.444 112.366 114.857 105.256 116.262C98.0808 117.683 90.906 119.104 83.7312 120.525C77.0396 121.849 70.348 123.173 63.6645 124.497C58.0116 125.619 52.3588 126.734 46.706 127.856C42.6556 128.655 38.6052 129.463 34.5628 130.262C32.6544 130.641 30.6332 130.867 28.765 131.408C28.6845 131.433 28.5959 131.441 28.5154 131.457C29.0227 131.844 29.5381 132.232 30.0454 132.627C30.0454 127.662 30.0454 122.689 30.0454 117.723C30.0454 109.811 30.0454 101.891 30.0454 93.9785C30.0454 92.1619 30.0454 90.3534 30.0454 88.5368C30.0454 86.9785 27.6296 86.9785 27.6296 88.5368C27.6296 93.5021 27.6296 98.4755 27.6296 103.441C27.6296 111.353 27.6296 119.274 27.6296 127.186C27.6296 129.002 27.6296 130.811 27.6296 132.627C27.6296 133.459 28.3946 133.944 29.1596 133.798C30.4802 133.54 31.8008 133.273 33.1214 133.015C36.7209 132.305 40.3123 131.594 43.9117 130.875C49.2344 129.818 54.5491 128.768 59.8718 127.711C66.3298 126.435 72.7879 125.151 79.2541 123.876C86.3644 122.471 93.4667 121.058 100.577 119.653C107.752 118.232 114.927 116.811 122.101 115.39C128.793 114.066 135.485 112.742 142.168 111.418C147.821 110.296 153.474 109.181 159.127 108.059C163.177 107.26 167.227 106.452 171.27 105.653C173.194 105.274 175.151 104.959 177.067 104.507C177.148 104.49 177.237 104.474 177.317 104.458C177.833 104.353 178.203 103.796 178.203 103.287C178.203 98.2656 178.203 93.2357 178.203 88.2138C178.203 80.2046 178.203 72.1955 178.203 64.1863C178.203 62.3455 178.203 60.5047 178.203 58.6639C178.203 57.8323 177.438 57.3398 176.673 57.4932C175.352 57.7596 174.032 58.0261 172.711 58.2925C169.12 59.0191 165.528 59.7377 161.937 60.4643C156.622 61.5381 151.316 62.6039 146.001 63.6777C139.519 64.9856 133.037 66.2936 126.554 67.6015C119.452 69.0306 112.35 70.4677 105.247 71.8968C98.0808 73.342 90.9141 74.7872 83.7393 76.2324C77.0557 77.5807 70.3722 78.929 63.6806 80.2773C58.0277 81.4157 52.383 82.5541 46.7301 83.6925C42.6636 84.516 38.5971 85.3315 34.5387 86.155C32.6141 86.5425 30.6574 86.8574 28.757 87.3176C28.6765 87.3418 28.5879 87.3499 28.5074 87.3661C26.9854 87.6729 27.6296 90.0062 29.1516 89.7074Z" fill="black"/>
<path d="M28.8293 88.9407L2.2561 49.4601L140.759 23.1396L176.995 58.5107L28.8293 88.9407Z" fill="white"/>
<path d="M29.8762 88.327C26.8887 83.8865 23.9013 79.4459 20.9138 75.0053C16.1387 67.9247 11.3716 60.8359 6.60453 53.7552C5.50135 52.1163 4.40621 50.4854 3.30302 48.8464C3.06144 49.4358 2.81987 50.0332 2.5783 50.6226C3.81033 50.3885 5.04235 50.1543 6.27438 49.9202C9.62421 49.2824 12.9821 48.6446 16.3319 48.0067C21.3164 47.0621 26.3089 46.1094 31.2934 45.1648C37.3489 44.0102 43.4044 42.8638 49.4598 41.7092C56.0951 40.4497 62.7222 39.1902 69.3575 37.9307C76.0571 36.655 82.7487 35.3875 89.4484 34.1118C95.6891 32.925 101.938 31.7381 108.178 30.5513C113.461 29.5501 118.735 28.5409 124.018 27.5398C127.835 26.8131 131.643 26.0865 135.46 25.3679C137.24 25.0288 139.1 24.8189 140.847 24.3426C140.92 24.3184 141 24.3103 141.081 24.3022C140.686 24.1972 140.3 24.0923 139.905 23.9873C143.98 27.9677 148.062 31.948 152.137 35.9284C158.643 42.2744 165.142 48.6203 171.648 54.9663C173.146 56.4277 174.644 57.889 176.141 59.3503C176.319 58.6721 176.496 58.002 176.673 57.3238C175.352 57.5983 174.032 57.8648 172.711 58.1393C169.12 58.874 165.528 59.6168 161.937 60.3515C156.622 61.4414 151.316 62.5314 146.001 63.6214C139.519 64.9535 133.036 66.2857 126.554 67.6179C119.452 69.0792 112.35 70.5325 105.247 71.9938C98.0807 73.4633 90.914 74.9408 83.7392 76.4102C77.0556 77.7827 70.3721 79.1552 63.6805 80.5278C58.0276 81.6904 52.3829 82.853 46.73 84.0076C42.6635 84.8392 38.597 85.6788 34.5386 86.5104C32.614 86.9061 30.6573 87.229 28.7569 87.6973C28.6764 87.7215 28.5878 87.7296 28.5073 87.7457C26.9854 88.0606 27.6296 90.3939 29.1515 90.079C30.4721 89.8045 31.7927 89.5381 33.1133 89.2636C36.7047 88.5289 40.2961 87.7861 43.8875 87.0514C49.2021 85.9614 54.5087 84.8715 59.8234 83.7815C66.3056 82.4493 72.7878 81.1172 79.2701 79.785C86.3724 78.3237 93.4747 76.8704 100.577 75.409C107.744 73.9396 114.91 72.4621 122.085 70.9927C128.769 69.6202 135.452 68.2476 142.144 66.8751C147.797 65.7125 153.441 64.5498 159.094 63.3953C163.161 62.5637 167.227 61.724 171.286 60.8924C173.21 60.4968 175.167 60.1739 177.067 59.7056C177.148 59.6814 177.237 59.6733 177.317 59.6571C178.219 59.4715 178.469 58.2362 177.849 57.6306C174.088 53.9571 170.327 50.2916 166.567 46.618C160.238 40.4416 153.9 34.2571 147.571 28.0807C145.767 26.3206 143.964 24.5606 142.16 22.8005C141.637 22.2838 141.282 21.8559 140.429 21.9527C140.251 21.977 140.066 22.0254 139.889 22.0577C136.547 22.6955 133.206 23.3253 129.864 23.9631C123.269 25.2145 116.666 26.474 110.071 27.7255C101.535 29.3483 92.9915 30.9711 84.4559 32.5939C75.3163 34.3298 66.1768 36.0657 57.0452 37.8015C48.5499 39.4163 40.0545 41.031 31.5592 42.6458C25.0608 43.881 18.5705 45.1163 12.0722 46.3516C8.83507 46.9652 5.59798 47.5788 2.36893 48.1924C2.22399 48.2166 2.0871 48.2489 1.94215 48.2732C1.20132 48.4104 0.806751 49.4358 1.21743 50.0494C4.2049 54.4899 7.19236 58.9305 10.1798 63.3711C14.9469 70.4517 19.714 77.5405 24.481 84.6212C25.5842 86.2601 26.6794 87.891 27.7825 89.53C28.6522 90.838 30.7459 89.6269 29.8762 88.327Z" fill="black"/>
<path d="M16.1951 68.5702L164.111 37.6719L134.317 15.0654L42.5186 34.4424L16.1951 68.5702Z" fill="white"/>
<path d="M16.5173 69.7329C17.8379 69.4584 19.1585 69.1839 20.4791 68.9094C24.0705 68.1585 27.6619 67.4076 31.2533 66.6568C36.5679 65.5507 41.8745 64.4365 47.1892 63.3304C53.6392 61.9821 60.0892 60.6338 66.5312 59.2935C73.6254 57.808 80.7197 56.3305 87.8139 54.8449C94.9806 53.3513 102.139 51.8495 109.306 50.3559C115.981 48.9591 122.665 47.5624 129.341 46.1737C134.985 44.9949 140.63 43.8162 146.267 42.6374C150.309 41.7896 154.352 40.95 158.394 40.1022C160.318 39.6985 162.267 39.3675 164.176 38.8912C164.256 38.8669 164.345 38.8589 164.425 38.8427C165.553 38.6086 165.464 37.1957 164.715 36.6305C160.391 33.3445 156.059 30.0666 151.734 26.7805C146.339 22.6872 140.944 18.5938 135.541 14.4923C135.009 14.0886 134.728 13.806 133.979 13.9029C133.737 13.9352 133.504 14.0079 133.262 14.0563C131.805 14.3631 130.347 14.6699 128.89 14.9767C123.003 16.2201 117.117 17.4634 111.231 18.7068C103.186 20.4023 95.1417 22.1058 87.1053 23.8013C79.1494 25.4807 71.1936 27.16 63.2377 28.8394C57.6091 30.0262 51.9884 31.213 46.3598 32.3999C45.0955 32.6663 43.8152 32.9085 42.559 33.1992C41.6571 33.4091 41.3108 34.0388 40.7633 34.7493C36.5921 40.1587 32.4209 45.5601 28.2497 50.9695C24.1752 56.2497 20.1006 61.538 16.0261 66.8183C15.7925 67.117 15.5671 67.4157 15.3336 67.7145C14.9309 68.2393 14.8343 68.9174 15.3336 69.4261C15.7442 69.8459 16.6461 69.9428 17.0407 69.4261C22.9754 61.7318 28.91 54.0375 34.8447 46.3432C37.5664 42.815 40.2882 39.2868 43.0099 35.7586C43.0904 35.6455 43.2354 35.5244 43.2918 35.3952C43.4528 35.04 43.477 35.8958 42.8408 35.6052C42.9133 35.6374 43.1871 35.5325 43.2595 35.5163C44.1775 35.3226 45.0875 35.1288 46.0054 34.935C55.5557 32.9166 65.1059 30.9062 74.6562 28.8878C87.2905 26.2235 99.9248 23.551 112.567 20.8867C117.375 19.8694 122.182 18.8602 126.997 17.8429C129.429 17.3262 131.925 16.9386 134.325 16.3008C134.43 16.2766 134.534 16.2524 134.639 16.2362C134.325 16.1959 134.019 16.1555 133.705 16.1151C137.071 18.6664 140.429 21.2177 143.795 23.769C149.125 27.814 154.464 31.8589 159.795 35.912C161.027 36.8485 162.267 37.7851 163.499 38.7216C163.596 37.9869 163.692 37.2441 163.789 36.5094C162.468 36.7839 161.148 37.0584 159.827 37.3329C156.236 38.0838 152.644 38.8347 149.053 39.5855C143.738 40.6916 138.432 41.8058 133.117 42.9119C126.667 44.2602 120.217 45.6085 113.775 46.9488C106.681 48.4343 99.5866 49.9118 92.4924 51.3974C85.3257 52.891 78.167 54.3928 71.0003 55.8864C64.3248 57.2832 57.6413 58.6799 50.9658 60.0686C45.321 61.2474 39.6762 62.4261 34.0395 63.6049C29.9971 64.4527 25.9548 65.2923 21.9124 66.1401C19.9879 66.5438 18.0311 66.8748 16.1308 67.3511C16.0502 67.3754 15.9616 67.3834 15.8811 67.3996C14.3512 67.7145 14.9954 70.0558 16.5173 69.7329Z" fill="black"/>
<path d="M2.2561 49.7829L32.8555 21.5248C32.8555 21.5248 42.3574 12.6437 48.8799 21.5248C55.4025 30.4059 54.5972 40.0944 52.5841 43.7276C50.571 47.3608 28.8293 88.5369 28.8293 88.5369L2.2561 49.7829Z" fill="white"/>
<path d="M3.10981 50.6385C8.55328 45.6086 13.9968 40.5786 19.4483 35.5568C22.9833 32.295 26.5103 29.0332 30.0453 25.7714C31.4465 24.4796 32.7993 23.1071 34.2729 21.9041C35.819 20.6365 38.2428 19.2882 40.4975 18.8926C44.3063 18.2305 46.9716 20.6446 48.9042 23.6641C51.2153 27.2893 52.6486 31.4876 52.8177 35.799C52.9144 38.2776 52.697 40.9823 51.4971 43.2107C47.5434 50.5497 43.654 57.9291 39.7566 65.2924C35.8351 72.7041 31.9216 80.1077 28.0081 87.5194C27.9356 87.6486 27.8712 87.7858 27.7987 87.915C28.4912 87.915 29.1918 87.915 29.8843 87.915C26.8968 83.5552 23.9013 79.1873 20.9138 74.8275C16.1468 67.876 11.3716 60.9164 6.60458 53.9649C5.50944 52.3663 4.40626 50.7677 3.31112 49.161C2.4334 47.8854 0.339754 49.0964 1.22553 50.3802C4.213 54.74 7.20852 59.1079 10.196 63.4677C14.9631 70.4192 19.7382 77.3788 24.5052 84.3303C25.6004 85.9289 26.7036 87.5275 27.7987 89.1342C28.2818 89.8447 29.4334 89.99 29.8843 89.1342C33.363 82.5541 36.8416 75.9739 40.3203 69.3938C44.6364 61.2394 48.9042 53.0607 53.3009 44.9465C56.1434 39.7067 55.6361 33.1024 53.5827 27.6687C52.1091 23.761 49.7014 19.1105 45.7477 17.2374C42.7683 15.8245 39.4909 16.3009 36.584 17.6331C34.289 18.6826 32.4369 20.257 30.609 21.9444C27.533 24.7864 24.4569 27.6284 21.3809 30.4703C14.8503 36.5014 8.31976 42.5325 1.79725 48.5555C1.66841 48.6766 1.53957 48.7896 1.41073 48.9108C0.25923 49.9846 1.96635 51.6962 3.10981 50.6385Z" fill="black"/>
<path d="M16.3481 67.5453V57.0495C16.3481 57.0495 15.1402 36.8651 35.2714 39.2872V44.0992L16.3481 67.5453Z" fill="white"/>
<path d="M17.5559 67.5453C17.5559 63.6214 17.427 59.6734 17.5559 55.7576C17.6203 53.6423 17.886 51.9226 18.5705 49.7911C19.3838 47.2479 20.8091 44.8015 22.9591 43.0818C26.4136 40.3125 31.0518 40.0138 35.2794 40.4982C34.8768 40.0945 34.4741 39.6908 34.0715 39.2871C34.0715 40.8938 34.0715 42.4924 34.0715 44.0991C34.1923 43.8165 34.305 43.5259 34.4258 43.2433C28.8938 50.0898 23.3617 56.9364 17.8377 63.7829C17.0566 64.7517 16.2755 65.7206 15.4944 66.6894C14.5281 67.8924 16.2272 69.6121 17.2016 68.4011C19.9555 64.9859 22.7095 61.5707 25.4715 58.1555C28.8938 53.9087 32.3241 49.67 35.7464 45.4232C36.1893 44.8742 36.4792 44.422 36.4792 43.6793C36.4792 42.2179 36.4792 40.7485 36.4792 39.2871C36.4792 38.5767 35.9236 38.1487 35.2713 38.0761C31.0357 37.5836 26.5022 37.9388 22.798 40.2398C20.0441 41.9515 18.0632 44.5674 16.8312 47.5385C15.4703 50.8165 15.1401 54.2639 15.1401 57.768C15.1401 61.0217 15.1401 64.2835 15.1401 67.5372C15.1401 69.1035 17.5559 69.1035 17.5559 67.5453Z" fill="black"/>
<path d="M146.798 14.6621C146.798 14.6621 104.925 -20.055 140.356 21.9284C175.787 63.9119 177.8 57.8566 177.8 57.8566L164.513 38.0759L146.798 14.6621Z" fill="white"/>
<path d="M147.652 13.8063C145.228 11.7959 142.756 9.8582 140.251 7.9528C138.254 6.43494 136.225 4.94129 134.14 3.54453C132.424 2.38999 130.669 1.23544 128.753 0.444215C127.496 -0.0725052 125.523 -0.460045 125 1.25966C124.477 2.98745 126.031 5.14314 126.884 6.49953C129.356 10.4314 132.32 14.0727 135.251 17.6655C139.873 23.3414 144.648 28.8961 149.496 34.3782C155.455 41.1117 161.518 47.8775 168.274 53.8278C169.86 55.2246 171.495 56.5891 173.251 57.7598C174.136 58.3491 175.111 58.9385 176.149 59.2292C177.148 59.5118 178.63 59.4068 178.96 58.1877C179.161 57.4368 178.485 56.7263 178.098 56.1531C177.293 54.9501 176.48 53.7471 175.674 52.5441C173.452 49.2419 171.237 45.9317 169.015 42.6295C166.704 39.1901 164.344 35.8799 161.848 32.5777C157.484 26.805 153.111 21.0323 148.747 15.2595C148.441 14.8639 148.143 14.4602 147.837 14.0646C146.911 12.8374 144.809 14.0404 145.751 15.2838C150.438 21.4763 155.124 27.677 159.811 33.8695C161.099 35.5812 162.484 37.2444 163.684 39.0206C165.907 42.3147 168.113 45.6168 170.336 48.919C172.477 52.1081 174.611 55.2892 176.753 58.4783C176.713 58.1634 176.673 57.8566 176.633 57.5418C176.608 57.6225 176.802 57.13 176.729 57.2915C176.657 57.4449 177.003 56.9524 176.834 57.1381C176.979 56.9847 176.971 56.9766 177.188 56.9282C176.858 56.9927 177.236 56.9282 177.228 56.9443C177.212 56.9604 177.075 56.9443 177.051 56.9443C176.721 56.9282 177.277 57.0089 177.116 56.9605C176.931 56.9039 176.745 56.8636 176.56 56.807C176.431 56.7667 176.021 56.581 176.472 56.7828C176.343 56.7263 176.214 56.6698 176.085 56.6052C175.763 56.4437 175.441 56.2661 175.135 56.0804C172.824 54.6837 171.165 53.1981 169.063 51.2927C165.077 47.6837 161.349 43.7922 157.693 39.8441C151.622 33.2882 145.767 26.5305 140.026 19.6759C136 14.872 131.764 9.99546 128.543 4.59412C128.181 3.98859 127.843 3.37499 127.561 2.73716C127.512 2.6322 127.617 2.92286 127.504 2.59183C127.472 2.48687 127.432 2.37384 127.4 2.26888C127.368 2.172 127.351 2.07511 127.327 1.9863C127.263 1.76831 127.231 2.16392 127.327 2.01052C127.351 1.97015 127.311 1.85712 127.327 1.8006C127.206 2.31732 127.295 2.00245 127.327 1.91364C127.215 2.19622 127.166 2.19622 127.021 2.33347C126.965 2.38999 126.804 2.41421 126.788 2.40614C127.231 2.53532 126.594 2.2931 126.997 2.42228C127.166 2.4788 127.343 2.51109 127.512 2.56761C127.617 2.59991 127.714 2.64027 127.81 2.68064C128.124 2.79368 127.891 2.71294 127.939 2.73716C128.447 2.96322 128.938 3.21351 129.421 3.48802C130.685 4.19043 131.901 4.98166 133.093 5.78904C137.602 8.84091 141.5 11.9412 145.679 15.3403C145.759 15.4049 145.84 15.4775 145.928 15.5421C147.136 16.5029 148.852 14.7993 147.652 13.8063Z" fill="black"/>
<path d="M145.373 22.1704V16.5511C145.373 16.5511 158.289 9.22817 164.425 25.8682V37.8658L145.373 22.1704Z" fill="white"/>
<path d="M146.581 22.1705C146.581 20.2974 146.581 18.4243 146.581 16.5512C146.379 16.8983 146.178 17.2455 145.985 17.6008C146.251 17.4473 146.54 17.3262 146.822 17.1971C146.468 17.3505 146.903 17.1648 146.975 17.1405C147.152 17.076 147.322 17.0114 147.499 16.9468C147.909 16.8015 148.336 16.6723 148.755 16.5673C150.776 16.0506 152.942 15.986 155.036 16.6642C158.241 17.7057 160.487 20.4266 161.993 23.3331C162.573 24.4473 163.209 25.4404 163.209 26.6595C163.209 27.8706 163.209 29.0816 163.209 30.2927C163.209 32.8198 163.209 35.3469 163.209 37.8739C163.894 37.5914 164.586 37.3007 165.27 37.0181C159.706 32.4322 154.142 27.8544 148.586 23.2685C147.797 22.6226 147.007 21.9686 146.226 21.3227C145.035 20.3378 143.319 22.0413 144.519 23.0344C150.084 27.6203 155.648 32.1981 161.204 36.784C161.993 37.4299 162.782 38.0839 163.563 38.7298C164.336 39.3676 165.625 38.9962 165.625 37.8739C165.625 35.5406 165.625 33.2154 165.625 30.8821C165.625 29.5095 165.625 28.137 165.625 26.7725C165.625 25.3596 165.085 24.197 164.473 22.9133C162.871 19.5385 160.415 16.3735 156.928 14.8315C154.408 13.7092 151.646 13.5235 148.948 14.0483C147.515 14.3309 146.033 14.7992 144.753 15.5177C144.382 15.7276 144.157 16.1394 144.157 16.5673C144.157 18.4404 144.157 20.3135 144.157 22.1866C144.165 23.7287 146.581 23.7287 146.581 22.1705Z" fill="black"/>
<path d="M69.2851 36.7034C67.0384 37.0829 64.6227 38.1486 63.0363 39.8037C60.2502 42.7345 60.8863 47.7241 64.0671 50.122C67.4732 52.6894 71.7089 51.4784 75.4774 50.6872C80.4377 49.6376 85.3981 48.588 90.3584 47.5384C97.2191 46.0851 104.088 44.6318 110.949 43.1786C114.999 42.3228 119.033 41.4346 123.092 40.6111C124.67 40.2882 126.168 39.7149 127.464 38.7299C130.476 36.437 131.998 31.3748 129.453 28.1775C126.78 24.8269 121.642 25.6828 117.978 26.4578C113.469 27.4025 108.96 28.3552 104.458 29.2998C97.5412 30.7531 90.6161 32.2144 83.699 33.6677C79.1252 34.6285 74.5514 35.5892 69.9776 36.5581C69.7521 36.5985 69.5186 36.6469 69.2851 36.7034C67.7631 37.0264 68.4073 39.3597 69.9293 39.0367C72.9811 38.3908 76.033 37.753 79.0849 37.1071C85.4947 35.7588 91.9045 34.4105 98.3223 33.0622C103.975 31.8753 109.636 30.6804 115.289 29.4936C117.801 28.9607 120.338 28.2583 122.745 28.2018C124.026 28.1695 125.419 28.2583 126.57 28.8719C127.843 29.542 128.294 30.7692 128.278 32.166C128.237 35.3147 125.991 37.4624 123.148 38.1325C120.523 38.7542 117.858 39.2467 115.216 39.8037C108.968 41.1278 102.711 42.4519 96.4622 43.776C90.5758 45.0194 84.6814 46.2708 78.795 47.5142C77.249 47.8452 75.7029 48.1681 74.1649 48.4992C73.2147 48.701 72.2967 48.9917 71.3304 49.137C68.6006 49.5488 65.1461 49.1693 64.0268 46.1174C63.4631 44.5753 63.5195 42.9121 64.6388 41.6446C65.5004 40.6676 66.7244 40.0217 67.9322 39.5858C68.5845 39.3516 69.2528 39.1498 69.9373 39.0367C71.4592 38.7784 70.815 36.4451 69.2851 36.7034Z" fill="black"/>
</svg>
