<?xml version="1.0" encoding="utf-8"?>
<!-- Generator: Adobe Illustrator 27.0.0, SVG Export Plug-In . SVG Version: 6.00 Build 0)  -->
<svg version="1.1" id="圖層_1" xmlns="http://www.w3.org/2000/svg" xmlns:xlink="http://www.w3.org/1999/xlink" x="0px" y="0px"
	 viewBox="0 0 31 34.4" style="enable-background:new 0 0 31 34.4;" xml:space="preserve">
<style type="text/css">
	.st0{fill:#908F88;}
</style>
<path class="st0" d="M9.3,34.4c-0.8,0-1.5-0.3-2-0.9c-0.6-0.6-0.8-1.3-0.8-2.2c0-0.9,0.3-1.6,0.8-2.2c0.6-0.6,1.2-0.9,2-0.9
	c0.8,0,1.5,0.3,2,0.9c0.6,0.6,0.8,1.3,0.8,2.2c0,0.9-0.3,1.6-0.8,2.2C10.8,34.1,10.1,34.4,9.3,34.4z M25.1,34.4
	c-0.8,0-1.5-0.3-2-0.9c-0.6-0.6-0.8-1.3-0.8-2.2c0-0.9,0.3-1.6,0.8-2.2c0.6-0.6,1.2-0.9,2-0.9c0.8,0,1.5,0.3,2,0.9
	c0.6,0.6,0.8,1.3,0.8,2.2c0,0.9-0.3,1.6-0.8,2.2C26.6,34.1,25.9,34.4,25.1,34.4z M7.3,6l4.3,9.8H23L28,6H7.3z M6.1,3.4h23.3
	c0.6,0,1.1,0.3,1.4,0.9c0.3,0.6,0.3,1.2,0,1.8l-5.3,10.5c-0.3,0.5-0.7,1-1.1,1.3c-0.5,0.3-1,0.5-1.5,0.5h-12l-2.2,4.5H28v2.6H8.9
	c-1.1,0-1.9-0.4-2.4-1.2c-0.5-0.8-0.5-1.7,0-2.7l2.5-5.1l-6-13.9H0V0h4.6L6.1,3.4z M11.6,15.8H23H11.6z"/>
</svg>
