<svg width="205" height="50" viewBox="0 0 205 50" fill="none" xmlns="http://www.w3.org/2000/svg">
<rect width="205" height="50" rx="15" fill="#FBDB6B"/>
<path d="M61.368 26.552V27.592H65.544V26.552H61.368ZM60.856 23.848V31.064L61.992 31.496V23.848H60.856ZM58.536 27.192L57.64 27.528C58.616 31.288 60.456 32.136 63.32 32.136H66.008C66.04 31.816 66.216 31.288 66.376 31.032C65.88 31.032 63.768 31.032 63.416 31.032C61.048 31.032 59.32 30.36 58.536 27.192ZM58.824 17.576C58.36 20.008 57.416 22.088 55.896 23.384C56.168 23.56 56.632 23.992 56.792 24.2C58.36 22.744 59.432 20.472 59.976 17.752L58.824 17.576ZM63.128 17.576C62.776 20.088 61.88 22.04 60.264 23.224C60.536 23.4 61.032 23.768 61.224 23.976C62.856 22.616 63.864 20.504 64.296 17.72L63.128 17.576ZM58.424 20.824C59.144 21.4 60.056 22.216 60.488 22.728L61.08 21.8C60.632 21.32 59.72 20.552 59 20.008L58.424 20.824ZM62.616 20.84C63.704 21.784 65 23.128 65.624 23.976L66.456 23.16C65.832 22.344 64.488 21.032 63.416 20.136L62.616 20.84ZM57.72 25.016C57.576 27.928 57 30.136 55.368 31.48C55.624 31.656 56.104 32.056 56.28 32.248C57.992 30.68 58.68 28.36 58.904 25.096L57.72 25.016ZM55.272 20.824C54.328 22.52 52.808 24.2 51.32 25.288C51.544 25.544 51.896 26.104 52.008 26.36C53.576 25.08 55.256 23.144 56.36 21.224L55.272 20.824ZM54.904 17.576C54.2 18.712 52.76 20.072 51.512 20.92C51.72 21.144 52.024 21.56 52.184 21.8C53.544 20.84 55.048 19.336 55.976 17.992L54.904 17.576ZM53.832 23.8V32.344H54.968V22.904L54.808 22.824L53.832 23.8ZM75.768 26.424C74.376 27.624 71.592 28.632 69.192 29.096C69.416 29.32 69.72 29.704 69.864 29.976C72.312 29.448 75.144 28.28 76.712 26.856L75.768 26.424ZM77.336 26.44L76.312 26.68C77.608 29.512 80.04 31.416 83.352 32.232C83.496 31.928 83.816 31.48 84.056 31.24C80.888 30.584 78.472 28.872 77.336 26.44ZM82.024 27.336C81.224 27.944 79.848 28.744 78.856 29.208L79.608 29.816C80.632 29.352 81.928 28.664 82.92 27.976L82.024 27.336ZM69.416 26.12V27.08H83.784V26.12H69.416ZM75.288 19.8V20.824H83.56V19.8H75.288ZM75.672 23.48V24.52H83.224V23.48H75.672ZM73.48 17.56V25.464H74.616V17.56H73.48ZM78.76 17.56V24.04H79.96V17.56H78.76ZM69.48 21.816V22.792H74.024V21.816H69.48ZM70.696 22.152C70.6 23.448 70.28 24.424 69.112 24.968C69.352 25.144 69.656 25.512 69.784 25.752C71.256 25.032 71.688 23.816 71.816 22.152H70.696ZM70.232 17.816V20.872H73.992V19.88H71.288V17.816H70.232ZM72.52 32.376C72.84 32.184 73.352 32.04 77.72 31.032C77.704 30.808 77.72 30.376 77.768 30.088L73 31.064L72.456 31.48L72.52 32.376ZM72.52 32.376C72.52 31.944 73.992 31.112 73.992 31.112V28.216L72.808 28.2V30.2C72.808 30.92 72.312 31.272 72.024 31.416C72.184 31.64 72.424 32.104 72.52 32.376ZM75.576 25.064C75.912 25.656 76.28 26.424 76.408 26.92L77.624 26.52C77.48 26.04 77.096 25.304 76.744 24.744L75.576 25.064ZM96.616 19.048H99.304V20.488H96.616V19.048ZM92.872 19.048H95.512V20.488H92.872V19.048ZM89.208 19.048H91.768V20.488H89.208V19.048ZM88.056 18.168V21.352H100.504V18.168H88.056ZM87.272 22.296V23.224H100.952V22.296H87.272ZM93.496 21.064C93.368 22.168 93.112 23.592 92.888 24.52H94.024C94.264 23.624 94.536 22.264 94.728 21.128L93.496 21.064ZM87.112 30.904V31.816H101.32V30.904H87.112ZM89.816 25.896V26.616H98.536V25.896H89.816ZM89.88 27.528V28.248H98.504V27.528H89.88ZM89.928 29.208V29.928H98.568V29.208H89.928ZM89.24 24.184V31.4H90.376V25H97.928V31.4H99.112V24.184H89.24ZM105.336 20.424V28.04H106.536V21.608H116.984V27.96H118.232V20.424H105.336ZM105.976 25.864V27.032H117.704V25.864H105.976ZM111.128 17.56V32.264H112.376V17.56H111.128ZM126.76 24.392V25.32H136.056V24.392H126.76ZM126.088 26.808V27.736H136.568V26.808H126.088ZM128.984 23.24V27.32H130.104V23.24H128.984ZM132.6 23.24V27.32H133.72V23.24H132.6ZM132.184 28.408C133.352 28.968 134.552 29.72 135.24 30.328L136.296 29.768C135.528 29.176 134.184 28.424 132.984 27.864L132.184 28.408ZM129.512 27.88C128.76 28.536 127.528 29.192 126.408 29.624C126.68 29.8 127.112 30.168 127.336 30.36C128.424 29.864 129.736 29.048 130.584 28.248L129.512 27.88ZM127.112 18.2V19.016H129.88V20.088H127.112V20.92H130.92V18.2H127.112ZM132.216 18.216V19.032H135.048V20.104H132.216V20.936H136.104V18.216H132.216ZM131.752 18.216V21.464C131.752 22.552 132.024 22.952 133.128 22.952C133.384 22.952 135.016 22.952 135.384 22.952C135.816 22.952 136.248 22.92 136.488 22.872C136.44 22.632 136.408 22.264 136.392 22.008C136.12 22.056 135.64 22.072 135.336 22.072C135.016 22.072 133.496 22.072 133.176 22.072C132.808 22.072 132.744 21.928 132.744 21.48V18.216H131.752ZM126.664 23.352C126.936 23.208 127.416 23.112 130.968 22.472C130.968 22.264 131.016 21.864 131.064 21.608L127.128 22.232L126.632 22.568L126.664 23.352ZM126.664 23.352C126.664 23 127.624 22.456 127.624 22.456V18.2H126.648V21.48C126.648 22.088 126.424 22.296 126.232 22.392C126.376 22.632 126.6 23.096 126.664 23.352ZM122.472 18.2C123.176 18.984 124.072 20.104 124.488 20.76L125.432 20.104C124.984 19.464 124.088 18.44 123.352 17.656L122.472 18.2ZM122.152 21.272V22.28H125.064V21.272H122.152ZM124.904 28.6L124.104 28.968C125.32 31.624 127.432 32.056 131.208 32.056C132.984 32.056 135.016 32.008 136.536 31.928C136.6 31.592 136.744 31.032 136.936 30.76C135.288 30.904 132.92 30.984 131.224 30.984C128.008 30.984 125.896 30.696 124.904 28.6ZM124.888 25.256V25.464C124.488 28.344 123.416 30.392 121.864 31.496C122.104 31.672 122.504 32.072 122.664 32.328C124.296 31.08 125.496 28.808 125.992 25.448L125.384 25.224L125.176 25.256H124.888ZM122.408 26.456C122.536 26.344 122.952 26.232 123.32 26.232H125.208V25.256H122.984L122.408 25.544V26.456ZM122.408 26.456C122.408 26.136 123.304 25.704 123.304 25.704C124.072 24.696 125.304 22.584 125.928 21.496L125.128 21.192L124.792 21.336V21.384C124.36 22.216 123.096 24.456 122.68 24.904C122.44 25.224 122.2 25.32 121.976 25.384C122.104 25.624 122.344 26.184 122.408 26.456ZM147.176 19.768V20.936H153.08V19.768H147.176ZM139.752 18.568V19.688H147.576V18.568H139.752ZM141.624 21.816V22.92H145.784V21.816H141.624ZM141.624 25.144V26.232H145.784V25.144H141.624ZM152.728 19.768V20.056C152.04 25.672 149.656 29.432 146.488 31.08C146.76 31.304 147.096 31.752 147.288 32.056C150.712 30.072 153.16 26.312 153.928 19.944L153.16 19.736L152.936 19.768H152.728ZM148.632 21L147.48 21.224C148.472 26.248 150.312 30.152 153.784 32.12C153.976 31.8 154.36 31.352 154.632 31.112C151.336 29.416 149.48 25.624 148.632 21ZM141 19V29.384H142.152V19H141ZM145.288 19V32.248H146.44V19H145.288ZM139.432 29.032L139.656 30.232C141.32 29.976 143.624 29.608 145.816 29.256L145.752 28.152C143.416 28.504 141 28.84 139.432 29.032Z" fill="black"/>
</svg>
