<svg width="179" height="116" viewBox="0 0 179 116" fill="none" xmlns="http://www.w3.org/2000/svg">
<path d="M142.397 6.67676L171.975 35.5767V63.4985L141.288 36.6883L142.397 6.67676Z" fill="#D9D9D9" stroke="black" stroke-miterlimit="10"/>
<path d="M141.288 36.688L177.891 68.6632L132.044 81.8979L97.29 49.6559L141.288 36.688Z" fill="#D9D9D9"/>
<path d="M140.504 37.4809C144.637 41.0897 148.771 44.7059 152.912 48.3147C159.471 54.0428 166.03 59.7709 172.589 65.5064C174.097 66.8255 175.598 68.1371 177.107 69.4561C177.27 68.8336 177.432 68.2186 177.595 67.5961C172.426 69.0856 167.257 70.5824 162.081 72.0719C153.851 74.4506 145.613 76.8293 137.383 79.2006C135.505 79.7415 133.627 80.2825 131.749 80.8308C132.111 80.9272 132.466 81.0235 132.828 81.1198C128.924 77.4962 125.02 73.8726 121.115 70.249C114.867 64.4542 108.611 58.652 102.363 52.8571C100.936 51.5307 99.501 50.2043 98.0739 48.8778C97.9112 49.5003 97.7485 50.1153 97.5858 50.7378C102.57 49.2706 107.546 47.8033 112.53 46.3361C120.398 44.0167 128.266 41.6973 136.141 39.3779C137.953 38.8444 139.772 38.3108 141.583 37.7699C142.951 37.3697 142.367 35.2208 140.992 35.6283C136.008 37.0955 131.031 38.5628 126.047 40.03C118.18 42.3494 110.312 44.6688 102.437 46.9882C100.625 47.5218 98.8059 48.0553 96.9943 48.5962C96.2178 48.826 95.8777 49.8708 96.5062 50.4562C100.499 54.1613 104.492 57.8591 108.478 61.5642C114.734 67.3664 120.99 73.1686 127.245 78.9708C128.562 80.1935 129.826 81.557 131.231 82.6686C131.874 83.1725 132.355 82.9724 133.021 82.7797C133.967 82.5055 134.921 82.2314 135.867 81.9572C143.743 79.6822 151.618 77.4073 159.493 75.1323C165.616 73.3613 171.768 71.6866 177.869 69.8266C177.972 69.797 178.083 69.7673 178.186 69.7377C178.941 69.5154 179.325 68.4483 178.675 67.8777C174.541 64.2689 170.407 60.6527 166.266 57.0439C159.708 51.3158 153.149 45.5877 146.59 39.8522C145.081 38.5331 143.58 37.2215 142.071 35.9025C140.999 34.9688 139.424 36.5324 140.504 37.4809Z" fill="black"/>
<path d="M0.0517384 44.4688C0.0517384 49.8931 0.0517384 55.3174 0.0517384 60.7417C0.0517384 67.033 -0.0591799 73.3392 0.0517384 79.6305C0.0739221 80.7716 1.01303 81.3496 1.78946 82.0832C3.73423 83.9136 5.679 85.7513 7.62376 87.5816C13.4211 93.0504 19.2184 98.5192 25.0232 103.981C28.824 107.56 32.5656 111.213 36.4256 114.733C36.4921 114.792 36.5513 114.851 36.6104 114.911C37.2981 115.563 38.5034 115.111 38.5034 114.125C38.5034 108.656 38.5034 103.195 38.5034 97.7263C38.5034 93.8063 38.5034 89.8862 38.5034 85.9588C38.5034 83.795 38.5848 81.6164 38.5034 79.46C38.4665 78.3855 37.2168 77.5778 36.4995 76.8961C34.503 74.9768 32.5064 73.0576 30.5025 71.1309C24.7643 65.6103 19.0188 60.097 13.2806 54.5764C9.56853 51.0121 5.91562 47.3588 2.12221 43.8612C2.06306 43.8019 1.99651 43.7426 1.93735 43.6833C0.909507 42.6904 -0.665533 44.2613 0.369704 45.2543C4.4441 49.1669 8.5185 53.0869 12.5855 56.9996C19.1001 63.2612 25.6147 69.5229 32.1367 75.7919C33.623 77.2221 35.1167 78.6523 36.603 80.0825C36.4921 79.8231 36.3886 79.5564 36.2777 79.297C36.2777 83.217 36.2777 87.137 36.2777 91.0571C36.2777 97.3113 36.2777 103.558 36.2777 109.812C36.2777 111.25 36.2777 112.688 36.2777 114.125C36.9062 113.866 37.5421 113.599 38.1707 113.34C34.0741 109.479 29.9775 105.611 25.8809 101.75C19.4033 95.6366 12.9183 89.5305 6.44063 83.4171C4.93954 82.0017 3.43844 80.5864 1.93735 79.171C2.04827 79.4304 2.15179 79.6971 2.26271 79.9565C2.26271 75.9476 2.26271 71.946 2.26271 67.9371C2.26271 61.5865 2.26271 55.2285 2.26271 48.8779C2.26271 47.4033 2.26271 45.9361 2.26271 44.4614C2.2701 43.0387 0.0517384 43.0387 0.0517384 44.4688Z" fill="black"/>
<path d="M1.16113 44.9804L95.8114 14.8281V48.7671L1.16113 80.4088V44.9804Z" fill="#D9D9D9"/>
<path d="M1.4494 46.0548C4.59208 45.0544 7.73477 44.054 10.8775 43.0536C18.4273 40.6527 25.9697 38.2444 33.5196 35.8435C42.6149 32.9461 51.7102 30.0486 60.8129 27.1512C68.6807 24.6466 76.5485 22.1419 84.4163 19.6298C87.0266 18.7999 89.6369 17.9699 92.2471 17.1326C93.4451 16.7473 94.8056 16.4879 95.9518 15.9544C95.9962 15.9321 96.0553 15.9247 96.1071 15.9025C95.6412 15.5468 95.168 15.1911 94.7021 14.828C94.7021 18.6295 94.7021 22.4383 94.7021 26.2398C94.7021 32.3458 94.7021 38.4519 94.7021 44.5505C94.7021 45.951 94.7021 47.3516 94.7021 48.7521C94.9757 48.3964 95.2419 48.0407 95.5155 47.6776C92.3802 48.7225 89.2523 49.7747 86.1171 50.8196C78.5894 53.3539 71.0617 55.8659 63.5341 58.3854C54.3944 61.4385 45.2621 64.4989 36.1225 67.5519C28.2473 70.1825 20.3795 72.8206 12.5043 75.4512C9.90877 76.3182 7.31328 77.1852 4.71779 78.0522C3.51987 78.4524 2.16667 78.7488 1.02051 79.2897C0.968753 79.312 0.909597 79.3268 0.857835 79.3416C1.32369 79.6973 1.79694 80.053 2.2628 80.4161C2.2628 76.422 2.2628 72.4353 2.2628 68.4411C2.2628 62.0831 2.2628 55.7177 2.2628 49.3597C2.2628 47.8999 2.2628 46.4475 2.2628 44.9877C2.2628 43.5575 0.0444336 43.5575 0.0444336 44.9877C0.0444336 48.9818 0.0444336 52.9685 0.0444336 56.9627C0.0444336 63.3207 0.0444336 69.6861 0.0444336 76.044C0.0444336 77.5039 0.0444336 78.9563 0.0444336 80.4161C0.0444336 81.1052 0.754311 81.7203 1.4494 81.4906C4.58469 80.4457 7.71259 79.3935 10.8479 78.3486C18.3755 75.8292 25.8958 73.3171 33.4235 70.7976C42.5631 67.7446 51.6954 64.6841 60.8351 61.6311C68.7103 59.0005 76.5781 56.3624 84.4533 53.7318C88.2763 52.4498 92.1362 51.2494 95.937 49.8933C95.9888 49.8711 96.0479 49.8562 96.0997 49.8414C96.5656 49.6858 96.9131 49.2782 96.9131 48.7669C96.9131 44.9655 96.9131 41.1566 96.9131 37.3552C96.9131 31.2491 96.9131 25.1431 96.9131 19.0444C96.9131 17.6439 96.9131 16.2434 96.9131 14.8428C96.9131 14.1463 96.2032 13.5534 95.5081 13.7683C92.3655 14.7687 89.2228 15.7691 86.0801 16.7695C78.5376 19.1704 70.9878 21.5713 63.4454 23.9797C54.35 26.8771 45.2547 29.7745 36.152 32.6719C28.2842 35.1765 20.4164 37.6812 12.5486 40.1933C8.71085 41.416 4.82132 42.5423 1.01312 43.8688C0.961358 43.8836 0.909597 43.8984 0.857835 43.9206C-0.495369 44.343 0.088801 46.492 1.4494 46.0548Z" fill="black"/>
<path d="M37.3942 114.867L132.045 83.7583L95.8112 48.9302L1.16089 80.0384L37.3942 114.867Z" fill="#D9D9D9"/>
<path d="M37.6826 115.941C40.8252 114.911 43.9605 113.873 47.1032 112.843C54.6457 110.368 62.1807 107.886 69.7232 105.411C78.8406 102.41 87.9655 99.416 97.083 96.4148C104.966 93.8212 112.841 91.2351 120.723 88.6415C124.539 87.3891 128.384 86.2183 132.17 84.8771C132.222 84.8548 132.281 84.84 132.333 84.8252C133.102 84.5732 133.449 83.5729 132.821 82.9652C128.746 79.0526 124.672 75.1326 120.605 71.22C114.09 64.9583 107.576 58.6967 101.054 52.4276C99.5676 50.9974 98.0739 49.5672 96.5876 48.1371C96.314 47.8703 95.8851 47.7295 95.508 47.8481C92.3653 48.8781 89.23 49.9155 86.0873 50.9456C78.5449 53.4206 71.0098 55.903 63.4674 58.378C54.3499 61.3792 45.225 64.3729 36.1075 67.3741C28.2249 69.9677 20.3497 72.5538 12.4671 75.1474C8.65154 76.3997 4.80637 77.5706 1.02035 78.9118C0.968593 78.934 0.909436 78.9489 0.857674 78.9637C0.0886407 79.2156 -0.258903 80.216 0.369634 80.8237C4.44403 84.7363 8.51843 88.6563 12.5854 92.5689C19.1 98.8306 25.6146 105.092 32.1366 111.361C33.6229 112.791 35.1166 114.222 36.603 115.652C37.6308 116.645 39.2058 115.074 38.1706 114.081C34.0962 110.168 30.0218 106.248 25.9548 102.336C19.4402 96.074 12.9256 89.8123 6.40359 83.5432C4.91728 82.113 3.42358 80.6829 1.93728 79.2527C1.7746 79.8751 1.61192 80.4902 1.44924 81.1127C4.59192 80.0826 7.72722 79.0452 10.8699 78.0152C18.4123 75.5402 25.9474 73.0577 33.4898 70.5827C42.6073 67.5816 51.7322 64.5878 60.8497 61.5867C68.7323 58.9931 76.6075 56.4069 84.4901 53.8133C87.0856 52.9611 89.6737 52.109 92.2692 51.2568C93.4597 50.864 94.8055 50.5899 95.9369 50.0489C95.9886 50.0267 96.0478 50.0119 96.0995 49.997C95.7372 49.9007 95.3823 49.8044 95.0199 49.708C99.0943 53.6207 103.169 57.5407 107.236 61.4533C113.75 67.7149 120.265 73.9766 126.787 80.2457C128.273 81.6758 129.767 83.106 131.253 84.5362C131.416 83.9137 131.579 83.2987 131.741 82.6762C128.599 83.7062 125.463 84.7437 122.321 85.7737C114.778 88.2487 107.243 90.7312 99.7007 93.2062C90.5832 96.2073 81.4583 99.2011 72.3408 102.202C64.4582 104.796 56.583 107.382 48.7004 109.976C44.8849 111.228 41.0397 112.399 37.2537 113.74C37.2019 113.762 37.1428 113.777 37.091 113.792C35.7452 114.244 36.322 116.393 37.6826 115.941Z" fill="black"/>
<path d="M37.3943 79.2972L132.045 49.6562V83.0172L37.3943 114.125V79.2972Z" fill="white"/>
<path d="M37.6826 80.3717C40.8178 79.3935 43.9457 78.408 47.081 77.4298C54.6309 75.0659 62.1881 72.7021 69.7379 70.3382C78.848 67.4852 87.9507 64.6323 97.0608 61.7794C104.936 59.3117 112.804 56.8515 120.679 54.3839C123.275 53.5688 125.87 52.7611 128.465 51.946C129.663 51.568 131.031 51.3087 132.178 50.7826C132.229 50.7603 132.281 50.7529 132.333 50.7307C131.867 50.375 131.394 50.0193 130.928 49.6562C130.928 53.3984 130.928 57.1405 130.928 60.8827C130.928 66.885 130.928 72.8873 130.928 78.8896C130.928 80.2605 130.928 81.6314 130.928 83.0097C131.201 82.654 131.468 82.2983 131.741 81.9352C128.599 82.9653 125.463 84.0027 122.321 85.0327C114.778 87.5077 107.243 89.9902 99.7007 92.4652C90.5832 95.4663 81.4583 98.4601 72.3408 101.461C64.4582 104.055 56.583 106.641 48.7004 109.235C46.1049 110.087 43.5169 110.939 40.9214 111.791C39.7308 112.184 38.3924 112.465 37.2537 112.999C37.2019 113.021 37.1427 113.036 37.091 113.051C37.5568 113.407 38.0301 113.762 38.496 114.125C38.496 110.205 38.496 106.285 38.496 102.365C38.496 96.111 38.496 89.8642 38.496 83.6099C38.496 82.1724 38.496 80.7348 38.496 79.2972C38.496 77.867 36.2776 77.867 36.2776 79.2972C36.2776 83.2172 36.2776 87.1372 36.2776 91.0572C36.2776 97.3115 36.2776 103.558 36.2776 109.813C36.2776 111.25 36.2776 112.688 36.2776 114.125C36.2776 114.822 36.9875 115.422 37.6826 115.2C40.8252 114.17 43.9605 113.132 47.1032 112.102C54.6457 109.627 62.1807 107.145 69.7232 104.67C78.8406 101.669 87.9655 98.675 97.083 95.6738C104.966 93.0802 112.841 90.4941 120.723 87.9005C124.539 86.6482 128.384 85.4773 132.17 84.1361C132.222 84.1138 132.281 84.099 132.333 84.0842C132.799 83.9286 133.146 83.521 133.146 83.0097C133.146 79.2675 133.146 75.5254 133.146 71.7832C133.146 65.7809 133.146 59.7786 133.146 53.7763C133.146 52.4054 133.146 51.0345 133.146 49.6562C133.146 48.9522 132.436 48.3668 131.741 48.5817C128.606 49.5599 125.478 50.5454 122.343 51.5236C114.793 53.8874 107.236 56.2513 99.6859 58.6152C90.5758 61.4681 81.4731 64.3211 72.363 67.174C64.4878 69.6416 56.62 72.1018 48.7448 74.5694C44.9144 75.7699 41.0397 76.8666 37.2463 78.1708C37.1945 78.1856 37.1427 78.2005 37.091 78.2227C35.7378 78.6525 36.3146 80.8015 37.6826 80.3717Z" fill="black"/>
<path d="M1.16113 44.4686L37.3945 79.2968L132.045 49.6558L95.8114 14.8276L1.16113 44.4686Z" fill="white"/>
<path d="M0.377231 45.2616C4.45163 49.1742 8.52603 53.0942 12.593 57.0069C19.1076 63.2685 25.6222 69.5302 32.1442 75.7992C33.6305 77.2294 35.1242 78.6596 36.6105 80.0898C36.8915 80.3565 37.313 80.4973 37.6902 80.3788C40.8254 79.4006 43.9533 78.4151 47.0886 77.4369C54.6385 75.073 62.1957 72.7092 69.7456 70.3453C78.8556 67.4924 87.9584 64.6394 97.0684 61.7865C104.944 59.3189 112.811 56.8587 120.687 54.391C124.517 53.1906 128.392 52.0939 132.185 50.7897C132.237 50.7748 132.289 50.76 132.34 50.7378C133.117 50.4933 133.45 49.4781 132.829 48.8778C128.754 44.9652 124.68 41.0452 120.613 37.1326C114.098 30.8709 107.583 24.6093 101.061 18.3402C99.5752 16.91 98.0815 15.4798 96.5952 14.0497C96.3142 13.7829 95.8927 13.6421 95.5156 13.7607C92.3803 14.7388 89.2524 15.7244 86.1171 16.7025C78.5673 19.0664 71.01 21.4303 63.4602 23.7941C54.3501 26.6471 45.2474 29.5 36.1373 32.353C28.2621 34.8206 20.3943 37.2808 12.5191 39.7484C8.68871 40.9489 4.81396 42.0456 1.02056 43.3498C0.968795 43.3646 0.917033 43.3794 0.865272 43.4016C-0.495327 43.824 0.0888433 45.973 1.45684 45.5432C4.59213 44.5651 7.72002 43.5795 10.8553 42.6013C18.4052 40.2375 25.9624 37.8736 33.5122 35.5097C42.6223 32.6568 51.725 29.8038 60.8351 26.9509C68.7103 24.4833 76.5781 22.0231 84.4533 19.5555C87.0488 18.7404 89.6443 17.9326 92.2398 17.1175C93.4377 16.7396 94.8057 16.4876 95.9519 15.9541C95.9962 15.9319 96.0554 15.9245 96.1071 15.9022C95.7448 15.8059 95.3899 15.7096 95.0275 15.6132C99.1019 19.5258 103.176 23.4459 107.243 27.3585C113.758 33.6201 120.273 39.8818 126.795 46.1508C128.281 47.581 129.775 49.0112 131.261 50.4414C131.424 49.8189 131.586 49.2039 131.749 48.5814C128.614 49.5596 125.486 50.5451 122.35 51.5233C114.801 53.8871 107.243 56.251 99.6935 58.6149C90.5834 61.4678 81.4807 64.3208 72.3706 67.1737C64.4954 69.6413 56.6276 72.1015 48.7524 74.5691C46.1569 75.3843 43.5614 76.192 40.9659 77.0071C39.768 77.385 38.4 77.637 37.2539 78.1705C37.2095 78.1927 37.1504 78.2002 37.0986 78.2224C37.4609 78.3187 37.8159 78.4151 38.1782 78.5114C34.1038 74.5988 30.0294 70.6788 25.9624 66.7662C19.4478 60.5045 12.9332 54.2428 6.41119 47.9738C4.92488 46.5436 3.43118 45.1134 1.94488 43.6832C0.909639 42.6977 -0.658007 44.2686 0.377231 45.2616Z" fill="black"/>
<path d="M96.9722 15.947L138.7 2.97168L142.397 6.6768L100.529 19.3706L96.9722 15.947Z" fill="white"/>
<path d="M97.2679 17.0216C101.971 15.5617 106.666 14.1019 111.369 12.6347C118.86 10.3079 126.351 7.97364 133.841 5.64682C135.564 5.11329 137.28 4.57975 139.003 4.04621C138.64 3.94988 138.285 3.85354 137.923 3.75721C139.158 4.99472 140.386 6.22482 141.62 7.46233C141.783 6.83987 141.946 6.22482 142.108 5.60236C137.391 7.03254 132.68 8.46272 127.963 9.8929C120.45 12.1678 112.93 14.4502 105.417 16.7251C103.694 17.2513 101.963 17.77 100.24 18.2961C100.603 18.3924 100.958 18.4888 101.32 18.5851C100.137 17.4439 98.9464 16.3028 97.7633 15.1616C96.7355 14.1686 95.1604 15.7396 96.1957 16.7326C97.3788 17.8737 98.5693 19.0149 99.7524 20.1561C100.033 20.4303 100.448 20.5562 100.832 20.4451C105.55 19.0149 110.26 17.5847 114.978 16.1546C122.491 13.8796 130.011 11.5973 137.524 9.32231C139.247 8.79618 140.977 8.27746 142.7 7.75133C143.491 7.51421 143.794 6.499 143.188 5.89136C141.953 4.65385 140.726 3.42375 139.491 2.18624C139.217 1.91206 138.788 1.78609 138.411 1.89724C133.708 3.35706 129.013 4.81688 124.31 6.2841C116.819 8.61092 109.328 10.9452 101.838 13.272C100.115 13.8055 98.3992 14.339 96.6763 14.8726C95.3157 15.3024 95.8925 17.4439 97.2679 17.0216Z" fill="black"/>
<path d="M127.29 44.8469L168.278 31.8716L171.975 35.5767L130.847 48.2705L127.29 44.8469Z" fill="white"/>
<path d="M127.586 45.9216C132.192 44.4617 136.799 43.0019 141.406 41.5495C148.756 39.2227 156.114 36.8959 163.464 34.5691C165.165 34.0281 166.866 33.4946 168.566 32.9536C168.204 32.8573 167.849 32.761 167.487 32.6646C168.722 33.9021 169.949 35.1322 171.184 36.3697C171.347 35.7473 171.509 35.1322 171.672 34.5098C167.043 35.94 162.414 37.3627 157.785 38.7929C150.405 41.0678 143.025 43.3502 135.638 45.6251C133.938 46.1513 132.244 46.67 130.543 47.1961C130.906 47.2924 131.261 47.3888 131.623 47.4851C130.44 46.3439 129.249 45.2028 128.066 44.0616C127.038 43.0686 125.463 44.6396 126.499 45.6326C127.682 46.7737 128.872 47.9149 130.055 49.0561C130.336 49.3229 130.75 49.4562 131.135 49.3451C135.764 47.9149 140.393 46.4921 145.022 45.062C152.402 42.787 159.782 40.5047 167.169 38.2297C168.869 37.7036 170.563 37.1849 172.264 36.6587C173.055 36.4142 173.358 35.4064 172.752 34.7988C171.517 33.5613 170.289 32.3312 169.054 31.0936C168.781 30.8195 168.352 30.6861 167.975 30.8047C163.368 32.2645 158.761 33.7243 154.154 35.1767C146.804 37.5035 139.446 39.8303 132.096 42.1571C130.396 42.6981 128.695 43.2316 126.994 43.7726C125.633 44.2098 126.218 46.3513 127.586 45.9216Z" fill="black"/>
<path d="M138.7 2.9717L171.975 35.5768L177.891 33.3537L143.506 1.11914L138.7 2.9717Z" fill="white"/>
<path d="M137.916 3.76468C141.665 7.44016 145.414 11.1082 149.163 14.7837C155.138 20.6378 161.113 26.4919 167.087 32.346C168.455 33.6873 169.823 35.0285 171.199 36.3698C171.465 36.6291 171.916 36.7921 172.278 36.6588C174.253 35.9177 176.22 35.1767 178.194 34.4357C178.933 34.1541 179.34 33.1908 178.682 32.5757C174.807 28.9447 170.932 25.3063 167.058 21.6752C160.883 15.8878 154.709 10.1004 148.534 4.31304C147.122 2.9866 145.71 1.66758 144.297 0.341143C144.031 0.089195 143.587 -0.0886509 143.218 0.0521438C141.613 0.667194 140.016 1.28965 138.411 1.90471C137.095 2.41601 137.664 4.56498 139.003 4.04627C140.607 3.43122 142.205 2.80876 143.809 2.19371C143.447 2.09737 143.092 2.00104 142.73 1.90471C146.604 5.53573 150.479 9.17416 154.354 12.8052C160.528 18.5926 166.703 24.38 172.877 30.1674C174.29 31.4938 175.702 32.8128 177.114 34.1393C177.277 33.5168 177.44 32.9018 177.602 32.2793C175.628 33.0203 173.661 33.7614 171.687 34.5024C172.049 34.5987 172.404 34.695 172.766 34.7914C169.017 31.1159 165.268 27.4478 161.519 23.7723C155.544 17.9183 149.57 12.0642 143.595 6.21006C142.227 4.8688 140.859 3.52755 139.483 2.18629C138.456 1.18591 136.888 2.75688 137.916 3.76468Z" fill="black"/>
<path d="M142.397 6.67676L141.288 36.6883L123.911 41.5049L100.529 19.3705L142.397 6.67676Z" fill="#D9D9D9"/>
<path d="M141.288 6.6768C140.962 15.4283 140.644 24.1798 140.319 32.9313C140.275 34.1836 140.223 35.436 140.179 36.6883C140.452 36.3326 140.718 35.9769 140.992 35.6138C135.927 37.0218 130.854 38.4223 125.789 39.8302C125.064 40.0303 124.339 40.2304 123.615 40.4305C123.977 40.5268 124.332 40.6231 124.694 40.7195C122.055 38.2222 119.415 35.7176 116.775 33.2203C112.589 29.2558 108.404 25.2913 104.219 21.3343C103.25 20.4154 102.281 19.5039 101.313 18.5851C101.15 19.2075 100.987 19.8226 100.825 20.445C105.542 19.0149 110.253 17.5847 114.971 16.1545C122.483 13.8796 130.004 11.5972 137.517 9.32225C139.239 8.79613 140.97 8.27741 142.693 7.75128C144.053 7.33631 143.477 5.19475 142.101 5.60972C137.383 7.0399 132.673 8.47008 127.955 9.90025C120.443 12.1752 112.922 14.4576 105.409 16.7325C103.686 17.2586 101.956 17.7773 100.233 18.3035C99.4568 18.5406 99.124 19.5706 99.7451 20.1634C104.98 25.1209 110.223 30.0858 115.459 35.0432C117.884 37.3404 120.309 39.6376 122.735 41.9347C122.861 42.0533 122.986 42.1941 123.127 42.3053C123.711 42.7573 124.169 42.6017 124.776 42.4312C126.491 41.957 128.214 41.4753 129.93 41.0011C133.812 39.9266 137.694 38.8521 141.576 37.7702C142.064 37.6368 142.375 37.1922 142.39 36.6957C142.715 27.9442 143.033 19.1927 143.358 10.4412C143.403 9.18887 143.454 7.93654 143.499 6.68421C143.558 5.24662 141.34 5.25403 141.288 6.6768Z" fill="black"/>
<path d="M177.891 33.354V68.6638L132.044 81.8985V47.804L177.891 33.354Z" fill="white"/>
<path d="M176.782 33.3538C176.782 37.3257 176.782 41.2976 176.782 45.2695C176.782 51.6053 176.782 57.941 176.782 64.2768C176.782 65.7366 176.782 67.1964 176.782 68.6637C177.055 68.308 177.321 67.9523 177.595 67.5892C172.426 69.0786 167.257 70.5755 162.081 72.065C153.851 74.4436 145.613 76.8223 137.383 79.1936C135.505 79.7346 133.627 80.2755 131.749 80.8239C132.215 81.1796 132.688 81.5353 133.154 81.8984C133.154 78.0598 133.154 74.2287 133.154 70.3902C133.154 64.2694 133.154 58.1559 133.154 52.0351C133.154 50.6271 133.154 49.2118 133.154 47.8038C132.88 48.1595 132.614 48.5152 132.34 48.8783C137.494 47.2554 142.648 45.6326 147.802 44.0024C156.025 41.4088 164.255 38.8152 172.478 36.2216C174.378 35.6214 176.279 35.0211 178.179 34.4209C179.54 33.9911 178.956 31.8495 177.588 32.2793C172.434 33.9022 167.28 35.525 162.126 37.1553C153.903 39.7489 145.673 42.3425 137.45 44.936C135.55 45.5363 133.649 46.1365 131.749 46.7367C131.283 46.8849 130.935 47.3073 130.935 47.8112C130.935 51.6497 130.935 55.4808 130.935 59.3193C130.935 65.4402 130.935 71.5536 130.935 77.6745C130.935 79.0825 130.935 80.4978 130.935 81.9058C130.935 82.6171 131.645 83.1803 132.34 82.9803C137.509 81.4908 142.678 79.9939 147.854 78.5045C156.084 76.1258 164.322 73.7471 172.552 71.3758C174.43 70.8349 176.308 70.2939 178.187 69.7456C178.652 69.6122 179 69.1675 179 68.6711C179 64.6992 179 60.7273 179 56.7554C179 50.4196 179 44.0839 179 37.7481C179 36.2883 179 34.8285 179 33.3612C179 31.9236 176.782 31.9236 176.782 33.3538Z" fill="black"/>
</svg>
