<svg width="32" height="33" viewBox="0 0 32 33" fill="none" xmlns="http://www.w3.org/2000/svg">
<path d="M29.6908 33L21.6752 24.7339C20.6255 25.672 19.4009 26.4027 18.0014 26.9259C16.6019 27.449 15.1149 27.7106 13.5404 27.7106C9.7617 27.7106 6.56028 26.3576 3.93617 23.6515C1.31206 20.9453 0 17.68 0 13.8553C0 10.0307 1.31206 6.76529 3.93617 4.05918C6.56028 1.35306 9.74421 0 13.4879 0C17.1967 0 20.3544 1.35306 22.961 4.05918C25.5676 6.76529 26.8709 10.0307 26.8709 13.8553C26.8709 15.4068 26.626 16.9042 26.1362 18.3475C25.6463 19.7907 24.9116 21.1438 23.9319 22.4066L32 30.6186L29.6908 33ZM13.4879 24.4633C16.322 24.4633 18.7362 23.426 20.7305 21.3513C22.7248 19.2766 23.722 16.7779 23.722 13.8553C23.722 10.9327 22.7248 8.43406 20.7305 6.35937C18.7362 4.28468 16.322 3.24734 13.4879 3.24734C10.6189 3.24734 8.17849 4.28468 6.16667 6.35937C4.15485 8.43406 3.14894 10.9327 3.14894 13.8553C3.14894 16.7779 4.15485 19.2766 6.16667 21.3513C8.17849 23.426 10.6189 24.4633 13.4879 24.4633Z" fill="#908F88"/>
</svg>
