<svg width="109" height="163" viewBox="0 0 109 163" fill="none" xmlns="http://www.w3.org/2000/svg">
<path d="M11.7056 19.4037L71.1938 1.37305V25.3475L11.7056 43.36V19.4037Z" fill="white"/>
<path d="M12.0677 20.7065C18.7619 18.6799 25.4471 16.6534 32.1413 14.6269C42.8159 11.3881 53.4906 8.1583 64.1652 4.91949C66.6257 4.16859 69.0954 3.42673 71.5559 2.67583C70.986 2.24157 70.4071 1.80734 69.8372 1.36403C69.8372 8.34829 69.8372 15.3416 69.8372 22.3258C69.8372 23.3301 69.8372 24.3343 69.8372 25.3475C70.1719 24.9133 70.4975 24.479 70.8323 24.0357C64.138 26.0622 57.4528 28.0888 50.7586 30.1153C40.084 33.3451 29.4094 36.5748 18.7348 39.8046C16.2742 40.5464 13.8046 41.2973 11.344 42.0392C11.9139 42.4734 12.4928 42.9077 13.0628 43.351C13.0628 36.3577 13.0628 29.3644 13.0628 22.3711C13.0628 21.385 13.0628 20.3898 13.0628 19.4037C13.0628 17.6576 10.3489 17.6576 10.3489 19.4037C10.3489 26.397 10.3489 33.3903 10.3489 40.3836C10.3489 41.3697 10.3489 42.3649 10.3489 43.351C10.3489 44.2105 11.2173 44.9161 12.0677 44.6628C18.7619 42.6363 25.4471 40.6098 32.1413 38.5832C42.8159 35.3535 53.4906 32.1237 64.1652 28.8939C66.6257 28.1521 69.0954 27.4012 71.5559 26.6593C72.1259 26.4874 72.551 25.9537 72.551 25.3475C72.551 18.3633 72.551 11.37 72.551 4.38572C72.551 3.3815 72.551 2.37729 72.551 1.36403C72.551 0.504573 71.6826 -0.201102 70.8323 0.0522135C64.138 2.07873 57.4528 4.10526 50.7586 6.13178C40.084 9.37059 29.4094 12.6004 18.7348 15.8392C16.2742 16.5901 13.8046 17.3319 11.344 18.0828C9.67946 18.5985 10.3851 21.2221 12.0677 20.7065Z" fill="black"/>
<path d="M71.1938 25.3477L87.8661 15.3418L102.295 27.9623L88.7707 42.3922L71.1938 25.3477Z" fill="#D9D9D9"/>
<path d="M71.8813 26.5239C76.7482 23.6017 81.606 20.6886 86.4729 17.7664C87.1695 17.3503 87.857 16.9341 88.5535 16.518C88.0017 16.4456 87.4589 16.3732 86.9071 16.3099C91.7107 20.5167 96.5233 24.7236 101.327 28.9304C101.327 28.2881 101.327 27.6548 101.327 27.0124C97.3917 31.2102 93.4657 35.399 89.5305 39.5967C88.9516 40.2119 88.3817 40.8271 87.8027 41.4333C88.445 41.4333 89.0782 41.4333 89.7205 41.4333C84.5913 36.4665 79.4621 31.4907 74.3419 26.5239C73.6091 25.8182 72.8764 25.1035 72.1527 24.3979C70.8952 23.1856 68.9774 25.0945 70.2348 26.3158C75.3641 31.2826 80.4933 36.2584 85.6135 41.2252C86.3463 41.9309 87.079 42.6456 87.8027 43.3513C88.3183 43.8488 89.2139 43.8941 89.7205 43.3513C93.6557 39.1535 97.5817 34.9647 101.517 30.7669C102.096 30.1517 102.666 29.5365 103.245 28.9304C103.724 28.4238 103.815 27.51 103.245 27.0124C98.4411 22.8056 93.6285 18.5988 88.8249 14.3919C88.3726 13.9938 87.7213 13.8581 87.1785 14.1838C82.3116 17.106 77.4538 20.0191 72.5869 22.9413C71.8903 23.3575 71.2028 23.7736 70.5062 24.1898C69.0136 25.0764 70.3796 27.4286 71.8813 26.5239Z" fill="black"/>
<path d="M11.7056 43.3597L71.1938 25.3472V124.873L11.7056 144.034V43.3597Z" fill="#D9D9D9"/>
<path d="M12.0674 44.6627C18.7616 42.6362 25.4468 40.6096 32.1411 38.5831C42.8157 35.3534 53.4903 32.1236 64.1649 28.8938C66.6255 28.152 69.0951 27.4011 71.5557 26.6592C70.9858 26.225 70.4068 25.7907 69.8369 25.3474C69.8369 28.6405 69.8369 31.9427 69.8369 35.2358C69.8369 43.1519 69.8369 51.077 69.8369 58.9931C69.8369 68.5738 69.8369 78.1546 69.8369 87.7353C69.8369 96.0223 69.8369 104.309 69.8369 112.596C69.8369 115.329 69.8369 118.061 69.8369 120.793C69.8369 122.05 69.665 123.444 69.8369 124.692C69.8459 124.746 69.8369 124.81 69.8369 124.864C70.1716 124.43 70.4973 123.996 70.832 123.552C64.1287 125.714 57.4163 127.877 50.7131 130.03C40.0294 133.468 29.3458 136.915 18.6712 140.352C16.2287 141.14 13.7862 141.927 11.3437 142.714C11.9136 143.148 12.4926 143.582 13.0625 144.026C13.0625 140.687 13.0625 137.34 13.0625 134.001C13.0625 125.977 13.0625 117.952 13.0625 109.927C13.0625 100.256 13.0625 90.5941 13.0625 80.9229C13.0625 72.5273 13.0625 64.1408 13.0625 55.7452C13.0625 51.6831 13.2344 47.5758 13.0625 43.5137C13.0625 43.4594 13.0625 43.3961 13.0625 43.3418C13.0625 41.5958 10.3486 41.5958 10.3486 43.3418C10.3486 46.6802 10.3486 50.0275 10.3486 53.3659C10.3486 61.3905 10.3486 69.4152 10.3486 77.4398C10.3486 87.1111 10.3486 96.7732 10.3486 106.444C10.3486 114.84 10.3486 123.227 10.3486 131.622C10.3486 135.684 10.1767 139.792 10.3486 143.854C10.3486 143.908 10.3486 143.971 10.3486 144.026C10.3486 144.876 11.217 145.609 12.0674 145.337C18.7707 143.175 25.483 141.013 32.1863 138.86C42.87 135.422 53.5536 131.975 64.2282 128.537C66.6707 127.75 69.1132 126.963 71.5557 126.176C72.1256 125.995 72.5508 125.479 72.5508 124.864C72.5508 121.571 72.5508 118.269 72.5508 114.976C72.5508 107.06 72.5508 99.1345 72.5508 91.2184C72.5508 81.6376 72.5508 72.0569 72.5508 62.4762C72.5508 54.1891 72.5508 45.9021 72.5508 37.6151C72.5508 33.5983 72.7136 29.5362 72.5508 25.5193C72.5508 25.465 72.5508 25.4017 72.5508 25.3474C72.5508 24.4879 71.6823 23.7823 70.832 24.0356C64.1377 26.0621 57.4526 28.0887 50.7583 30.1152C40.0837 33.3449 29.4091 36.5747 18.7345 39.8045C16.2739 40.5463 13.8043 41.2972 11.3437 42.0391C9.67919 42.5547 10.3848 45.1693 12.0674 44.6627Z" fill="black"/>
<path d="M11.7056 43.3599V144.034L29.2825 161.341V62.2228L11.7056 43.3599Z" fill="white"/>
<path d="M10.3485 43.3598C10.3485 48.3809 10.3485 53.4019 10.3485 58.414C10.3485 69.5689 10.3485 80.7238 10.3485 91.8877C10.3485 103.332 10.3485 114.777 10.3485 126.221C10.3485 132.083 10.1043 138 10.3485 143.863C10.3847 144.785 10.9999 145.247 11.606 145.844C13.2253 147.436 14.8355 149.028 16.4548 150.621C20.1728 154.276 23.8818 157.94 27.5998 161.595C27.844 161.83 28.0792 162.065 28.3235 162.3C29.1557 163.124 30.6393 162.526 30.6393 161.341C30.6393 156.266 30.6393 151.182 30.6393 146.106C30.6393 134.969 30.6393 123.824 30.6393 112.687C30.6393 101.342 30.6393 89.9969 30.6393 78.652C30.6393 74.8252 30.6393 70.9983 30.6393 67.1714C30.6393 65.5611 30.8022 63.8602 30.6393 62.2589C30.5398 61.2547 29.4814 60.4405 28.821 59.7439C27.1203 57.9254 25.4287 56.0979 23.728 54.2795C20.2633 50.5521 16.7895 46.8338 13.3248 43.1065C13.1077 42.8713 12.8905 42.636 12.6644 42.4008C11.4703 41.1162 9.55248 43.0432 10.7466 44.3188C15.8758 49.8193 21.0051 55.3199 26.1252 60.8295C26.858 61.6166 27.5907 62.4037 28.3235 63.1817C28.1878 62.8651 28.0611 62.5394 27.9254 62.2227C27.9254 65.5068 27.9254 68.7999 27.9254 72.0839C27.9254 79.9819 27.9254 87.8709 27.9254 95.7689C27.9254 105.286 27.9254 114.795 27.9254 124.312C27.9254 132.599 27.9254 140.886 27.9254 149.173C27.9254 151.878 27.9254 154.592 27.9254 157.297C27.9254 158.546 27.7626 159.921 27.9254 161.16C27.9345 161.215 27.9254 161.278 27.9254 161.332C28.6944 161.016 29.4724 160.69 30.2413 160.373C25.103 155.316 19.9738 150.259 14.8355 145.201C14.1118 144.487 13.3881 143.781 12.6644 143.066C12.8001 143.383 12.9267 143.709 13.0624 144.025C13.0624 140.687 13.0624 137.34 13.0624 134.001C13.0624 125.977 13.0624 117.952 13.0624 109.927C13.0624 100.256 13.0624 90.594 13.0624 80.9228C13.0624 72.5272 13.0624 64.1407 13.0624 55.7451C13.0624 51.683 13.2343 47.5757 13.0624 43.5136C13.0624 43.4593 13.0624 43.396 13.0624 43.3417C13.0624 41.6137 10.3485 41.6047 10.3485 43.3598Z" fill="black"/>
<path d="M71.1938 25.3296V126.004L88.7707 143.311V42.3922L71.1938 25.3296Z" fill="#D9D9D9"/>
<path d="M69.8371 25.3296C69.8371 30.3506 69.8371 35.3717 69.8371 40.3837C69.8371 51.5386 69.8371 62.6935 69.8371 73.8575C69.8371 85.3019 69.8371 96.7463 69.8371 108.191C69.8371 114.053 69.5928 119.97 69.8371 125.832C69.8733 126.755 70.4884 127.216 71.0945 127.814C72.7138 129.406 74.324 130.998 75.9433 132.59C79.6613 136.245 83.3703 139.909 87.0883 143.564C87.3326 143.8 87.5678 144.035 87.812 144.27C88.6443 145.093 90.1278 144.496 90.1278 143.311C90.1278 138.281 90.1278 133.251 90.1278 128.212C90.1278 117.066 90.1278 105.92 90.1278 94.765C90.1278 83.2844 90.1278 71.8038 90.1278 60.3232C90.1278 54.4246 90.3631 48.4717 90.1278 42.5731C90.0917 41.6865 89.5579 41.2522 88.9699 40.6823C87.3778 39.1352 85.7856 37.5882 84.1935 36.0412C80.4212 32.3862 76.658 28.7222 72.8857 25.0672C72.6414 24.832 72.3972 24.5968 72.1529 24.3615C70.8955 23.1402 68.9777 25.0581 70.2351 26.2795C75.3643 31.2553 80.4936 36.2311 85.6138 41.207C86.3465 41.9126 87.0792 42.6274 87.803 43.333C87.6673 43.0164 87.5406 42.6907 87.4049 42.374C87.4049 45.7305 87.4049 49.0869 87.4049 52.4433C87.4049 60.4589 87.4049 68.4836 87.4049 76.4992C87.4049 86.2337 87.4049 95.9683 87.4049 105.703C87.4049 114.089 87.4049 122.476 87.4049 130.853C87.4049 133.631 87.4049 136.408 87.4049 139.177C87.4049 140.452 87.2421 141.854 87.4049 143.121C87.414 143.175 87.4049 143.239 87.4049 143.293C88.1738 142.976 88.9519 142.651 89.7208 142.334C84.5825 137.277 79.4533 132.219 74.315 127.162C73.5913 126.447 72.8676 125.742 72.1439 125.027C72.2796 125.344 72.4062 125.669 72.5419 125.986C72.5419 122.648 72.5419 119.3 72.5419 115.962C72.5419 107.937 72.5419 99.9128 72.5419 91.8881C72.5419 82.2169 72.5419 72.5547 72.5419 62.8835C72.5419 54.4879 72.5419 46.1014 72.5419 37.7058C72.5419 33.6437 72.7138 29.5364 72.5419 25.4743C72.5419 25.42 72.5419 25.3567 72.5419 25.3024C72.5509 23.5835 69.8371 23.5745 69.8371 25.3296Z" fill="black"/>
<path d="M29.2825 62.223L88.7708 42.3921V142.18L29.2825 161.342V62.223Z" fill="white"/>
<path d="M29.6444 63.5256C36.3568 61.291 43.0691 59.0474 49.7814 56.8128C60.4651 53.2483 71.1487 49.6928 81.8324 46.1283C84.2658 45.3141 86.6993 44.5089 89.1237 43.6947C88.5538 43.2604 87.9748 42.8262 87.4049 42.3829C87.4049 45.676 87.4049 48.9781 87.4049 52.2712C87.4049 60.2325 87.4049 68.1848 87.4049 76.1461C87.4049 85.7359 87.4049 95.3348 87.4049 104.925C87.4049 113.248 87.4049 121.58 87.4049 129.903C87.4049 132.635 87.4049 135.368 87.4049 138.1C87.4049 139.357 87.233 140.75 87.4049 141.999C87.4139 142.053 87.4049 142.117 87.4049 142.171C87.7396 141.737 88.0652 141.302 88.4 140.859C81.6967 143.021 74.9843 145.184 68.2811 147.337C57.5974 150.775 46.9138 154.221 36.2392 157.659C33.7967 158.446 31.3542 159.233 28.9117 160.021C29.4816 160.455 30.0606 160.889 30.6305 161.332C30.6305 158.048 30.6305 154.755 30.6305 151.471C30.6305 143.573 30.6305 135.684 30.6305 127.786C30.6305 118.269 30.6305 108.76 30.6305 99.243C30.6305 90.956 30.6305 82.669 30.6305 74.382C30.6305 70.4013 30.7933 66.3754 30.6305 62.3947C30.6305 62.3405 30.6305 62.2771 30.6305 62.2229C30.6305 60.4768 27.9166 60.4768 27.9166 62.2229C27.9166 65.5069 27.9166 68.8 27.9166 72.084C27.9166 79.982 27.9166 87.871 27.9166 95.769C27.9166 105.286 27.9166 114.795 27.9166 124.312C27.9166 132.599 27.9166 140.886 27.9166 149.173C27.9166 153.154 27.7538 157.18 27.9166 161.16C27.9166 161.215 27.9166 161.278 27.9166 161.332C27.9166 162.183 28.785 162.916 29.6354 162.644C36.3387 160.482 43.051 158.32 49.7543 156.167C60.4379 152.729 71.1216 149.282 81.7962 145.844C84.2387 145.057 86.6812 144.27 89.1237 143.483C89.6936 143.302 90.1187 142.786 90.1187 142.171C90.1187 138.878 90.1187 135.576 90.1187 132.283C90.1187 124.321 90.1187 116.369 90.1187 108.408C90.1187 98.8178 90.1187 89.219 90.1187 79.6292C90.1187 71.306 90.1187 62.9738 90.1187 54.6505C90.1187 50.6337 90.2816 46.5716 90.1187 42.5548C90.1187 42.5005 90.1187 42.4371 90.1187 42.3829C90.1187 41.5415 89.2503 40.7906 88.4 41.071C81.6876 43.3056 74.9753 45.5493 68.263 47.7839C57.5793 51.3484 46.8957 54.9039 36.212 58.4684C33.7786 59.2826 31.3451 60.0878 28.9207 60.902C27.2743 61.4629 27.9799 64.0865 29.6444 63.5256Z" fill="black"/>
<path d="M11.7056 43.3599L1.33862 45.0969L11.7056 55.4376L29.2825 62.2228L11.7056 43.3599Z" fill="#D9D9D9"/>
<path d="M11.3437 42.048C7.88804 42.627 4.43238 43.206 0.976702 43.785C-0.0636194 43.9569 -0.28978 45.3863 0.379644 46.0558C3.73581 49.4032 7.03769 52.8048 10.4391 56.0979C11.407 57.0388 12.9721 57.3736 14.2023 57.8531C17.0791 58.9658 19.9558 60.0696 22.8234 61.1823C24.8498 61.9694 26.8852 62.7475 28.9116 63.5346C30.2504 64.0502 31.0827 62.1775 30.2323 61.2638C25.1031 55.7632 19.9739 50.2626 14.8537 44.753C14.1209 43.966 13.3882 43.1789 12.6554 42.4008C11.4613 41.1162 9.5435 43.0432 10.7376 44.3188C15.8668 49.8193 20.9961 55.3199 26.1163 60.8295C26.849 61.6166 27.5818 62.4037 28.3145 63.1817C28.7578 62.4218 29.192 61.6709 29.6353 60.9109C25.076 59.1468 20.5076 57.3826 15.9483 55.6275C14.9532 55.2385 13.949 54.8585 12.954 54.4695C12.7097 54.379 12.4383 54.2252 12.185 54.1709C11.7417 54.0805 12.8363 54.7952 12.5559 54.3609C12.1036 53.6733 11.2533 53.0672 10.6743 52.4882C9.60684 51.4297 8.54843 50.3622 7.48097 49.3037C5.75313 47.5847 4.02529 45.8568 2.29745 44.1379C2.09843 44.8978 1.89941 45.6487 1.70039 46.4086C5.15607 45.8296 8.61173 45.2506 12.0674 44.6716C13.7862 44.3731 13.0535 41.7585 11.3437 42.048Z" fill="black"/>
<path d="M29.2825 62.223L46.4071 72.1385L104.909 52.787L88.7707 42.3921L29.2825 62.223Z" fill="#D9D9D9"/>
<path d="M28.5951 63.3896C33.7243 66.357 38.8535 69.3335 43.9918 72.3009C44.5979 72.6537 45.2221 73.1241 45.8825 73.3684C46.4524 73.5855 46.8323 73.4136 47.348 73.2417C48.9853 72.6989 50.6318 72.1561 52.2691 71.6133C58.6829 69.4872 65.1058 67.3703 71.5196 65.2442C78.7476 62.8558 85.9665 60.4674 93.1945 58.079C97.1567 56.7672 101.155 55.5459 105.081 54.1436C105.136 54.1255 105.199 54.1074 105.253 54.0893C106.375 53.7184 106.574 52.2528 105.579 51.6104C100.585 48.3897 95.5917 45.1781 90.6072 41.9573C89.9288 41.5231 89.2593 40.8988 88.3909 41.0707C88.1195 41.125 87.8391 41.2517 87.5677 41.3421C85.8127 41.9302 84.0577 42.5092 82.3028 43.0973C75.7713 45.2776 69.2399 47.4489 62.7176 49.6292C55.4444 52.0538 48.1712 54.4783 40.907 56.9029C36.9719 58.2147 33.0006 59.4451 29.0926 60.8383C29.0293 60.8564 28.966 60.8836 28.9117 60.9017C27.2653 61.4535 27.9709 64.0772 29.6354 63.5162C36.3477 61.2816 43.06 59.038 49.7724 56.8034C60.456 53.2389 71.1397 49.6834 81.8233 46.1189C84.2568 45.3047 86.6902 44.4995 89.1146 43.6853C88.7618 43.6401 88.418 43.5948 88.0652 43.5496C93.4478 47.0146 98.8212 50.4796 104.204 53.9446C104.312 53.1213 104.421 52.289 104.529 51.4657C97.9076 53.6551 91.2947 55.8444 84.6729 58.0338C74.2063 61.4988 63.7398 64.9547 53.2823 68.4197C50.867 69.2158 48.4516 70.021 46.0272 70.8171C46.38 70.8624 46.7238 70.9076 47.0766 70.9528C42.0921 68.0669 37.1166 65.1899 32.1321 62.304C31.4084 61.8787 30.6757 61.4626 29.952 61.0374C28.4503 60.1689 27.0843 62.512 28.5951 63.3896Z" fill="black"/>
<path d="M46.4072 72.1385C46.4072 72.1385 48.2074 62.223 54.5217 60.4227C60.836 58.6224 96.8854 46.0018 96.8854 46.0018C96.8854 46.0018 108.419 42.4645 107.614 52.7961L46.4072 72.1385Z" fill="white"/>
<path d="M47.7188 72.5006C48.0806 70.5374 48.7682 68.5742 49.6818 66.801C50.4055 65.3987 51.2921 64.0598 52.5043 63.0284C53.4451 62.2232 54.5035 61.8433 55.6614 61.4995C60.5826 59.9977 65.4495 58.2878 70.3164 56.6322C76.4045 54.5514 82.4926 52.4525 88.5717 50.3355C91.4665 49.3313 94.3433 48.2004 97.2742 47.3048C98.9568 46.7891 100.486 46.5991 102.313 46.8524C103.29 46.9881 104.448 47.3772 105.181 48.1823C106.311 49.4218 106.366 51.2221 106.257 52.8053C106.592 52.3711 106.918 51.9368 107.252 51.4935C100.377 53.6648 93.4929 55.8451 86.6177 58.0164C75.6175 61.4995 64.6082 64.9735 53.6079 68.4566C51.093 69.2527 48.5782 70.0488 46.0543 70.845C44.3988 71.3697 45.1044 73.9933 46.778 73.4596C53.6532 71.2883 60.5374 69.1079 67.4125 66.9367C78.4128 63.4536 89.4221 59.9796 100.422 56.4965C102.937 55.7004 105.452 54.9042 107.976 54.1081C108.582 53.9181 108.926 53.4205 108.971 52.7963C109.188 49.5756 108.211 46.2463 105.054 44.844C102.838 43.8579 100.323 43.9393 97.9889 44.3555C95.4921 44.8078 93.0949 45.8935 90.7157 46.7167C79.0731 50.7698 67.4577 54.9585 55.6976 58.6497C54.4854 59.0297 53.2551 59.3372 52.1424 59.9796C50.3603 61.02 48.9762 62.6394 47.9178 64.3945C46.579 66.62 45.5748 69.2165 45.1044 71.7859C44.7878 73.4867 47.4022 74.2105 47.7188 72.5006Z" fill="black"/>
<path d="M39.6495 23.004C39.6495 23.004 42.6619 15.7935 47.9178 19.3942L51.6268 18.381C51.6268 18.381 54.0693 17.5848 54.9739 19.3942C55.8785 21.1946 53.1737 22.0993 53.1737 22.0993L36.0491 28.405C36.0491 28.405 32.892 29.753 32.0054 28.405C30.7661 26.5142 33.3443 25.7 33.3443 25.7L39.6495 23.004Z" fill="white"/>
<path d="M40.8165 23.6916C41.3141 22.5245 42.074 21.3574 43.06 20.5432C43.7385 19.9823 44.5707 19.6385 45.4573 19.7743C46.1538 19.8828 46.6242 20.2718 47.2303 20.5704C47.7188 20.8056 48.144 20.7332 48.6325 20.6066C49.9442 20.2809 51.6449 19.4486 52.9566 19.5752C53.2009 19.6024 53.8251 19.72 53.7979 20.0818C53.7798 20.3352 53.2823 20.5523 53.1014 20.6518C52.8481 20.7966 52.9114 20.7513 52.5134 20.8961C49.0667 22.1717 45.611 23.4383 42.1554 24.7139C40.4094 25.3562 38.6545 25.9985 36.9085 26.6499C36.0311 26.9756 35.1355 27.3646 34.2218 27.5637C33.4891 27.7175 32.4668 27.6632 33.5705 27.0661C33.8328 26.9304 33.4348 27.1294 33.679 27.0209C33.8057 26.9666 33.9414 26.9123 34.0771 26.858C34.3665 26.7404 34.647 26.6137 34.9274 26.4961C36.7276 25.7271 38.5278 24.9491 40.328 24.1801C41.9292 23.4925 40.5451 21.1584 38.962 21.837C37.4423 22.4883 35.9315 23.1397 34.4118 23.7911C33.8328 24.0353 33.2629 24.3068 32.6749 24.5329C33.3714 24.2525 32.4216 24.6234 32.2045 24.732C31.7793 24.9491 31.3722 25.2386 31.0556 25.5914C30.1148 26.6228 30.1057 28.1246 30.938 29.2374C31.7522 30.3321 33.1001 30.4768 34.3665 30.2868C35.3978 30.133 36.3477 29.744 37.3156 29.3912C40.9341 28.0612 44.5526 26.7223 48.1711 25.3924C49.6909 24.8315 51.2107 24.2706 52.7305 23.7097C53.7256 23.3478 54.7387 23.004 55.5258 22.2622C56.6475 21.2037 56.7922 19.6476 55.9329 18.372C55.1187 17.1778 53.6803 16.7525 52.2962 16.8973C50.695 17.0601 49.1029 17.6753 47.556 18.0915C47.9088 18.1367 48.2526 18.182 48.6054 18.2272C46.1538 16.6168 43.3766 16.7073 41.1512 18.6253C40.0205 19.5933 39.0706 20.9413 38.4826 22.3164C38.1931 22.995 38.2836 23.7639 38.9711 24.1711C39.532 24.5148 40.5361 24.3701 40.8165 23.6916Z" fill="black"/>
</svg>
