<svg width="140" height="158" viewBox="0 0 140 158" fill="none" xmlns="http://www.w3.org/2000/svg">
<path d="M1.54443 85.8626L97.6744 56.4526L109.614 1.43262L14.1944 31.9826L1.54443 85.8626Z" fill="#D9D9D9" stroke="black" stroke-miterlimit="10"/>
<path d="M1.54468 120.963L98.1647 88.9727L135.585 122.343L38.8747 156.073L1.54468 120.963Z" fill="#D9D9D9"/>
<path d="M1.94456 122.413C5.15456 121.353 8.37456 120.283 11.5846 119.223C19.2646 116.683 26.9346 114.143 34.6146 111.603C43.9346 108.513 53.2646 105.433 62.5846 102.343C70.6146 99.6827 78.6346 97.0327 86.6646 94.3727C89.3146 93.4927 91.9646 92.6227 94.6046 91.7427C95.8046 91.3427 97.2646 91.0827 98.3946 90.4927C98.4446 90.4627 98.5146 90.4527 98.5646 90.4327C98.0746 90.3027 97.5946 90.1727 97.1046 90.0427C101.325 93.8027 105.545 97.5627 109.755 101.333C116.475 107.323 123.195 113.313 129.915 119.313C131.455 120.683 132.985 122.053 134.525 123.423C134.745 122.583 134.965 121.753 135.185 120.913C131.985 122.033 128.775 123.143 125.575 124.263C117.885 126.943 110.185 129.633 102.495 132.313C93.1846 135.563 83.8746 138.803 74.5646 142.053C66.5146 144.863 58.4646 147.673 50.4046 150.473C47.7446 151.403 45.0946 152.323 42.4346 153.253C41.2346 153.673 39.7646 153.963 38.6446 154.573C38.5946 154.603 38.5246 154.613 38.4746 154.633C38.9646 154.763 39.4446 154.893 39.9346 155.023C35.7346 151.083 31.5446 147.133 27.3446 143.193C20.6446 136.893 13.9446 130.593 7.25456 124.303C5.70456 122.843 4.15457 121.383 2.59457 119.923C1.18457 118.603 -0.935437 120.723 0.474563 122.043C4.67456 125.983 8.86457 129.933 13.0646 133.873C19.7646 140.173 26.4646 146.473 33.1546 152.763C34.7046 154.223 36.2546 155.683 37.8146 157.143C38.1846 157.493 38.7646 157.703 39.2746 157.533C42.4746 156.413 45.6846 155.303 48.8846 154.183C56.5746 151.503 64.2746 148.813 71.9646 146.133C81.2746 142.883 90.5846 139.643 99.8946 136.393C107.945 133.583 115.995 130.773 124.055 127.973C127.975 126.603 131.925 125.323 135.815 123.873C135.875 123.853 135.925 123.833 135.985 123.813C136.985 123.463 137.545 122.103 136.645 121.303C132.425 117.543 128.205 113.783 123.995 110.013C117.275 104.023 110.555 98.0327 103.835 92.0327C102.295 90.6627 100.765 89.2927 99.2246 87.9227C98.8346 87.5727 98.2846 87.3627 97.7646 87.5327C94.5546 88.5927 91.3346 89.6627 88.1246 90.7227C80.4446 93.2627 72.7746 95.8027 65.0946 98.3427C55.7746 101.433 46.4446 104.513 37.1246 107.603C29.0946 110.263 21.0746 112.913 13.0446 115.573C9.13456 116.863 5.18457 118.063 1.31457 119.453C1.25457 119.473 1.20456 119.493 1.14456 119.513C-0.675439 120.123 0.104564 123.023 1.94456 122.413Z" fill="black"/>
<path d="M97.6744 56.4526L98.1644 89.8226L1.54443 121.813V86.7126L97.6744 56.4526Z" fill="#D9D9D9"/>
<path d="M96.1744 56.4525C96.3144 66.2125 96.4544 75.9725 96.6044 85.7225C96.6244 87.0925 96.6444 88.4525 96.6644 89.8225C97.0344 89.3425 97.3944 88.8625 97.7644 88.3725C94.5544 89.4325 91.3344 90.5025 88.1244 91.5625C80.4444 94.1025 72.7744 96.6425 65.0944 99.1825C55.7744 102.273 46.4444 105.353 37.1244 108.443C29.0944 111.103 21.0744 113.753 13.0444 116.413C10.3944 117.293 7.74444 118.163 5.10444 119.043C3.89444 119.443 2.46444 119.713 1.31444 120.293C1.26444 120.323 1.19443 120.333 1.14443 120.353C1.77443 120.833 2.41443 121.313 3.04443 121.803C3.04443 111.553 3.04443 101.313 3.04443 91.0625C3.04443 89.6125 3.04443 88.1525 3.04443 86.7025C2.67443 87.1825 2.31444 87.6625 1.94444 88.1525C5.12444 87.1525 8.30444 86.1525 11.4844 85.1525C19.1244 82.7425 26.7744 80.3425 34.4144 77.9325C43.6644 75.0225 52.9144 72.1125 62.1644 69.2025C70.1744 66.6825 78.1744 64.1625 86.1844 61.6425C90.0844 60.4125 94.0544 59.3025 97.9144 57.9525C97.9644 57.9325 98.0244 57.9225 98.0744 57.9025C99.9144 57.3225 99.1244 54.4325 97.2744 55.0125C94.0944 56.0125 90.9144 57.0125 87.7344 58.0125C80.0944 60.4225 72.4444 62.8225 64.8044 65.2325C55.5544 68.1425 46.3044 71.0525 37.0544 73.9625C29.0444 76.4825 21.0444 79.0025 13.0344 81.5225C9.13443 82.7525 5.16444 83.8625 1.30444 85.2125C1.25444 85.2325 1.19443 85.2425 1.14443 85.2625C0.514432 85.4625 0.0444336 86.0325 0.0444336 86.7125C0.0444336 96.9625 0.0444336 107.203 0.0444336 117.453C0.0444336 118.903 0.0444336 120.363 0.0444336 121.813C0.0444336 122.743 1.00444 123.573 1.94444 123.263C5.15444 122.203 8.37443 121.133 11.5844 120.073C19.2644 117.533 26.9344 114.993 34.6144 112.453C43.9344 109.363 53.2644 106.283 62.5844 103.193C70.6144 100.533 78.6344 97.8825 86.6644 95.2225C90.5744 93.9325 94.5244 92.7325 98.3944 91.3425C98.4544 91.3225 98.5044 91.3025 98.5644 91.2825C99.1844 91.0725 99.6744 90.5225 99.6644 89.8325C99.5244 80.0725 99.3844 70.3125 99.2344 60.5625C99.2144 59.1925 99.1944 57.8325 99.1744 56.4625C99.1544 54.5225 96.1544 54.5225 96.1744 56.4525Z" fill="black"/>
<path d="M97.6743 55.6025L137.724 88.8326L135.584 122.343L98.1643 88.9725L97.6743 55.6025Z" fill="#D9D9D9"/>
<path d="M96.6144 56.6627C101.114 60.4027 105.624 64.1327 110.124 67.8727C117.314 73.8327 124.494 79.7927 131.684 85.7527C133.344 87.1327 135.004 88.5027 136.664 89.8827C136.514 89.5327 136.374 89.1727 136.224 88.8227C135.594 98.6027 134.974 108.393 134.344 118.173C134.254 119.563 134.164 120.953 134.074 122.333C134.924 121.983 135.784 121.623 136.634 121.273C132.414 117.513 128.194 113.753 123.984 109.983C117.264 103.993 110.544 98.0027 103.824 92.0027C102.284 90.6327 100.754 89.2627 99.2144 87.8927C99.3644 88.2427 99.5044 88.6027 99.6544 88.9527C99.5144 79.1927 99.3744 69.4327 99.2244 59.6827C99.2044 58.3127 99.1844 56.9528 99.1644 55.5828C99.1344 53.6528 96.1344 53.6528 96.1644 55.5828C96.2444 61.0228 96.3244 66.4528 96.4044 71.8928C96.4644 75.6628 96.5144 79.4428 96.5744 83.2128C96.6044 85.0828 96.4444 87.0527 96.6544 88.9127C96.7944 90.1827 98.2744 91.0728 99.1644 91.8628C101.254 93.7327 103.344 95.5928 105.444 97.4628C111.294 102.683 117.144 107.903 123.004 113.123C126.844 116.543 130.684 119.963 134.514 123.393C135.514 124.283 136.994 123.653 137.074 122.333C137.434 116.743 137.794 111.163 138.144 105.573C138.394 101.733 138.634 97.8928 138.884 94.0528C138.994 92.3628 139.344 90.5127 139.224 88.8127C139.134 87.4927 137.204 86.4427 136.294 85.6927C134.014 83.8027 131.734 81.9128 129.464 80.0228C123.214 74.8328 116.964 69.6528 110.714 64.4628C106.784 61.2028 102.884 57.9027 98.9244 54.6827C98.8644 54.6327 98.8044 54.5827 98.7344 54.5327C97.2644 53.3227 95.1344 55.4327 96.6144 56.6627Z" fill="black"/>
<path d="M109.725 2.28271L97.6746 56.4527L114.815 79.4927L124.145 43.8527C124.145 43.8527 125.845 38.1027 121.175 28.2527C116.515 18.4027 109.725 2.28271 109.725 2.28271Z" fill="white"/>
<path d="M108.285 1.88287C105.694 13.5229 103.105 25.1629 100.515 36.8029C99.2145 42.6629 97.9045 48.5229 96.6045 54.3929C96.3645 55.4929 95.9345 56.5329 96.6245 57.5329C98.0845 59.6729 99.7345 61.7129 101.275 63.7929C105.355 69.2829 109.445 74.7729 113.525 80.2629C114.255 81.2429 115.915 81.2529 116.265 79.9029C118.675 70.6829 121.095 61.4629 123.505 52.2529C124.225 49.5029 125.085 46.7429 125.665 43.9529C127.245 36.3929 123.075 28.9429 120.075 22.3329C118.015 17.7929 116.025 13.2329 114.055 8.66287C113.335 6.98287 112.615 5.30286 111.895 3.62286C111.685 3.12286 111.475 2.63287 111.265 2.13287C111.205 2.00287 111.155 1.87289 111.105 1.74289C111.315 2.23289 111.215 2.00288 111.165 1.89288C110.845 1.14288 110.174 0.622864 109.314 0.842864C108.604 1.03286 107.955 1.94287 108.265 2.69287C110.665 8.39287 113.125 14.0829 115.635 19.7329C117.535 24.0129 119.825 28.2329 121.365 32.6629C122.475 35.8629 123.245 39.3529 122.835 42.7529C122.875 42.4329 122.774 43.1229 122.734 43.2729C122.714 43.3429 122.695 43.4129 122.685 43.4829C122.605 43.8029 122.515 44.1229 122.435 44.4429C121.965 46.2529 121.485 48.0529 121.015 49.8629C119.505 55.6429 117.985 61.4229 116.475 67.1929C115.435 71.1629 114.395 75.1229 113.355 79.0929C114.265 78.9729 115.184 78.8529 116.094 78.7329C111.084 72.0029 106.075 65.2729 101.075 58.5329C100.365 57.5829 99.6645 56.6329 98.9545 55.6829C99.0045 56.0729 99.0545 56.4529 99.1045 56.8429C100.465 50.7329 101.825 44.6329 103.185 38.5229C105.345 28.7929 107.514 19.0729 109.674 9.34286C110.164 7.12286 110.665 4.89288 111.155 2.67288C111.595 0.802881 108.705 -0.00712752 108.285 1.88287Z" fill="black"/>
<path d="M109.725 2.28271L128.395 13.3127V27.4827C128.395 27.4827 129.245 31.9827 123.305 27.7327C117.365 23.4927 106.405 17.2327 106.405 17.2327L109.725 2.28271Z" fill="white"/>
<path d="M108.975 3.58251C114.415 6.80251 119.865 10.0125 125.305 13.2325C126.085 13.6925 126.865 14.1525 127.645 14.6125C127.395 14.1825 127.145 13.7525 126.905 13.3125C126.905 17.9125 126.785 22.5325 126.905 27.1425C126.915 27.4025 126.935 27.6125 126.955 27.8825C126.915 27.4525 126.985 27.7825 126.945 28.0925C126.915 28.2925 126.795 28.3325 126.985 28.1725C127.105 28.0825 127.285 28.1125 127.115 28.0525C127.025 28.0225 126.485 27.8725 126.235 27.7625C124.255 26.8825 122.475 25.3025 120.655 24.1225C118.815 22.9225 116.955 21.7625 115.085 20.6225C112.465 19.0225 109.825 17.4525 107.165 15.9325C107.395 16.4925 107.625 17.0625 107.855 17.6225C108.965 12.6325 110.075 7.65249 111.185 2.66249C111.605 0.782494 108.715 -0.017494 108.295 1.86251C107.185 6.85251 106.075 11.8325 104.965 16.8225C104.825 17.4725 105.055 18.1725 105.655 18.5125C110.745 21.4225 115.805 24.4325 120.665 27.7025C122.625 29.0225 126.635 32.6825 129.065 30.3125C129.705 29.6925 129.945 28.8025 129.945 27.9325C129.945 27.6425 129.875 27.3725 129.855 27.0825C129.915 27.7625 129.895 27.3925 129.905 27.1525C130.135 22.7325 129.905 18.2425 129.905 13.8225C129.905 13.0625 129.815 12.4825 129.135 11.9825C128.785 11.7225 128.365 11.5325 127.995 11.3025C126.085 10.1725 124.175 9.0425 122.265 7.9225C118.345 5.6025 114.425 3.28249 110.495 0.972491C108.825 0.00249141 107.305 2.59251 108.975 3.58251Z" fill="black"/>
<path d="M14.6945 32.8325L33.3645 43.8625V58.0325C33.3645 58.0325 34.2145 62.5325 28.2745 58.2825C22.3345 54.0425 11.3745 47.7825 11.3745 47.7825L14.6945 32.8325Z" fill="white"/>
<path d="M13.9345 34.1225C19.3745 37.3425 24.8245 40.5526 30.2645 43.7726C31.0445 44.2326 31.8245 44.6925 32.6045 45.1525C32.3545 44.7225 32.1045 44.2926 31.8645 43.8526C31.8645 48.4526 31.7445 53.0725 31.8645 57.6825C31.8745 57.9425 31.8945 58.1526 31.9145 58.4226C31.8745 57.9926 31.9445 58.3226 31.9045 58.6326C31.8745 58.8326 31.7545 58.8726 31.9445 58.7126C32.0645 58.6226 32.2445 58.6525 32.0745 58.5925C31.9845 58.5625 31.4445 58.4126 31.1945 58.3026C29.2145 57.4226 27.4345 55.8426 25.6145 54.6626C23.7745 53.4626 21.9145 52.3026 20.0445 51.1626C17.4245 49.5626 14.7845 47.9925 12.1245 46.4726C12.3545 47.0326 12.5845 47.6026 12.8145 48.1626C13.9245 43.1726 15.0345 38.1926 16.1445 33.2026C16.5645 31.3226 13.6745 30.5225 13.2545 32.4025C12.1445 37.3925 11.0345 42.3726 9.9245 47.3626C9.7845 48.0126 10.0145 48.7126 10.6145 49.0526C15.7045 51.9626 20.7645 54.9726 25.6245 58.2426C27.5845 59.5626 31.5945 63.2226 34.0245 60.8526C34.6645 60.2326 34.9045 59.3426 34.9045 58.4725C34.9045 58.1825 34.8345 57.9125 34.8145 57.6225C34.8745 58.3025 34.8545 57.9326 34.8645 57.6926C35.0945 53.2726 34.8645 48.7826 34.8645 44.3626C34.8645 43.6026 34.7745 43.0226 34.0945 42.5226C33.7445 42.2626 33.3245 42.0725 32.9545 41.8425C31.0445 40.7125 29.1345 39.5826 27.2245 38.4626C23.3045 36.1426 19.3845 33.8226 15.4545 31.5126C13.7845 30.5526 12.2745 33.1425 13.9345 34.1225Z" fill="black"/>
<path d="M13.8444 32.8325L1.79443 87.0025L18.9344 110.043L28.2644 74.4025C28.2644 74.4025 29.9644 68.6525 25.2944 58.8025C20.6244 48.9525 13.8444 32.8325 13.8444 32.8325Z" fill="white"/>
<path d="M12.4044 32.4326C9.81437 44.0726 7.22437 55.7127 4.63437 67.3527C3.33437 73.2127 2.02437 79.0727 0.724371 84.9427C0.484371 86.0427 0.0543751 87.0827 0.744375 88.0827C2.20438 90.2227 3.85437 92.2626 5.39437 94.3427C9.47437 99.8326 13.5644 105.323 17.6444 110.813C18.3744 111.793 20.0344 111.803 20.3844 110.453C22.7944 101.233 25.2144 92.0127 27.6244 82.8027C28.3444 80.0527 29.2044 77.2927 29.7844 74.5027C31.3644 66.9427 27.1944 59.4927 24.1944 52.8827C22.1344 48.3427 20.1444 43.7827 18.1744 39.2127C17.4544 37.5327 16.7344 35.8527 16.0144 34.1727C15.8044 33.6727 15.5944 33.1826 15.3844 32.6826C15.3244 32.5526 15.2744 32.4227 15.2244 32.2927C15.4344 32.7827 15.3344 32.5527 15.2844 32.4427C14.9644 31.6927 14.2944 31.1727 13.4344 31.3927C12.7244 31.5827 12.0744 32.4927 12.3844 33.2427C14.7844 38.9427 17.2444 44.6327 19.7544 50.2827C21.6544 54.5627 23.9444 58.7827 25.4844 63.2127C26.5944 66.4127 27.3644 69.9027 26.9544 73.3027C26.9944 72.9827 26.8944 73.6727 26.8544 73.8227C26.8344 73.8927 26.8144 73.9627 26.8044 74.0327C26.7244 74.3527 26.6344 74.6727 26.5544 74.9927C26.0844 76.8027 25.6044 78.6027 25.1344 80.4127C23.6244 86.1927 22.1044 91.9727 20.5944 97.7427C19.5544 101.713 18.5144 105.673 17.4744 109.643C18.3844 109.523 19.3044 109.403 20.2144 109.283C15.2044 102.553 10.1944 95.8227 5.19437 89.0827C4.48437 88.1327 3.78437 87.1827 3.07437 86.2327C3.12437 86.6227 3.17437 87.0027 3.22437 87.3927C4.58437 81.2827 5.94437 75.1827 7.30437 69.0727C9.46437 59.3427 11.6344 49.6227 13.7944 39.8927C14.2844 37.6727 14.7844 35.4427 15.2744 33.2227C15.7144 31.3427 12.8244 30.5426 12.4044 32.4326Z" fill="black"/>
<path d="M1.54443 85.8628L38.8744 122.343V156.073L1.54443 120.963V85.8628Z" fill="white"/>
<path d="M0.484447 86.9229C4.68445 91.0329 8.89445 95.1429 13.0944 99.2529C19.7944 105.803 26.4944 112.353 33.2044 118.903C34.7444 120.403 36.2844 121.913 37.8244 123.413C37.6744 123.063 37.5345 122.703 37.3844 122.353C37.3844 132.183 37.3844 142.013 37.3844 151.843C37.3844 153.253 37.3844 154.663 37.3844 156.083C38.2344 155.733 39.0944 155.373 39.9444 155.023C35.7444 151.083 31.5545 147.133 27.3545 143.193C20.6544 136.893 13.9544 130.593 7.26445 124.303C5.71445 122.843 4.16445 121.383 2.60445 119.923C2.75445 120.273 2.89444 120.633 3.04444 120.983C3.04444 110.733 3.04444 100.493 3.04444 90.2429C3.04444 88.7929 3.04444 87.3329 3.04444 85.8829C3.04444 83.9529 0.0444444 83.9529 0.0444444 85.8829C0.0444444 91.4429 0.0444444 97.0029 0.0444444 102.563C0.0444444 106.543 0.0444444 110.513 0.0444444 114.493C0.0444444 116.603 -0.0555556 118.753 0.0444444 120.863C0.104444 122.093 1.41444 122.933 2.25444 123.713C4.30444 125.643 6.36445 127.573 8.41445 129.503C14.3344 135.073 20.2544 140.643 26.1744 146.203C29.9944 149.793 33.7344 153.483 37.6344 156.983C37.6945 157.033 37.7544 157.093 37.8144 157.153C38.7444 158.033 40.3744 157.423 40.3744 156.093C40.3744 150.473 40.3744 144.853 40.3744 139.233C40.3744 135.383 40.3744 131.533 40.3744 127.683C40.3744 125.943 40.5544 124.093 40.3744 122.363C40.2344 121.063 38.4944 119.893 37.6344 119.053C35.4944 116.963 33.3644 114.873 31.2244 112.783C25.4144 107.103 19.6044 101.433 13.7944 95.7529C10.1244 92.1729 6.55445 88.4529 2.77445 84.9829C2.71445 84.9329 2.65445 84.8729 2.60445 84.8129C1.22445 83.4529 -0.905553 85.5729 0.484447 86.9229Z" fill="black"/>
<path d="M38.8745 122.343L137.725 88.833L135.585 122.343L38.8745 156.073V122.343Z" fill="white"/>
<path d="M39.2745 123.793C42.5545 122.683 45.8345 121.563 49.1245 120.453C57.0045 117.783 64.8845 115.113 72.7645 112.443C82.2545 109.223 91.7445 106.003 101.235 102.793C109.475 100.003 117.715 97.2028 125.955 94.4128C128.665 93.4928 131.365 92.5728 134.075 91.6628C135.325 91.2428 136.785 90.9428 137.965 90.3428C138.015 90.3128 138.075 90.3028 138.135 90.2828C137.505 89.8028 136.865 89.3228 136.235 88.8328C135.605 98.6128 134.985 108.403 134.355 118.183C134.265 119.573 134.175 120.963 134.085 122.343C134.455 121.863 134.815 121.383 135.185 120.893C131.985 122.013 128.775 123.123 125.575 124.243C117.885 126.923 110.185 129.613 102.495 132.293C93.1845 135.543 83.8745 138.783 74.5645 142.033C66.5145 144.843 58.4645 147.653 50.4045 150.453C47.7445 151.383 45.0945 152.303 42.4345 153.233C41.2245 153.653 39.7845 153.953 38.6445 154.553C38.5945 154.583 38.5345 154.593 38.4745 154.613C39.1045 155.093 39.7445 155.573 40.3745 156.063C40.3745 146.233 40.3745 136.403 40.3745 126.573C40.3745 125.163 40.3745 123.753 40.3745 122.333C40.3745 120.403 37.3745 120.403 37.3745 122.333C37.3745 132.163 37.3745 141.993 37.3745 151.823C37.3745 153.233 37.3745 154.643 37.3745 156.063C37.3745 156.983 38.3445 157.833 39.2745 157.513C42.4745 156.393 45.6845 155.283 48.8845 154.163C56.5745 151.483 64.2745 148.793 71.9645 146.113C81.2745 142.863 90.5845 139.623 99.8945 136.373C107.945 133.563 115.995 130.753 124.055 127.953C127.975 126.583 131.925 125.303 135.815 123.853C135.875 123.833 135.925 123.813 135.985 123.793C136.645 123.563 137.045 123.043 137.085 122.343C137.715 112.563 138.335 102.773 138.965 92.9928C139.055 91.6028 139.145 90.2128 139.235 88.8328C139.295 87.8928 138.225 87.0828 137.335 87.3828C134.055 88.4928 130.775 89.6128 127.485 90.7228C119.605 93.3928 111.725 96.0628 103.845 98.7328C94.3545 101.953 84.8645 105.173 75.3745 108.383C67.1345 111.173 58.8945 113.973 50.6545 116.763C46.6545 118.123 42.6145 119.383 38.6445 120.833C38.5845 120.853 38.5345 120.873 38.4745 120.893C36.6645 121.513 37.4445 124.413 39.2745 123.793Z" fill="black"/>
<path d="M14.1943 31.9826L109.614 1.43262L126.694 12.4626L31.6643 42.1626L14.1943 31.9826Z" fill="white"/>
<path d="M14.5943 33.4227C17.7543 32.4127 20.9143 31.4027 24.0843 30.3827C31.6743 27.9527 39.2743 25.5227 46.8643 23.0927C56.0543 20.1527 65.2443 17.2127 74.4343 14.2727C82.3743 11.7327 90.3243 9.18271 98.2643 6.64271C100.874 5.80271 103.484 4.9727 106.094 4.1327C107.294 3.7527 108.724 3.50269 109.854 2.93269C109.904 2.91269 109.964 2.8927 110.014 2.8827C109.624 2.8327 109.244 2.7827 108.854 2.7327C114.544 6.4127 120.244 10.0827 125.934 13.7627C126.054 12.8527 126.174 11.9327 126.294 11.0227C123.134 12.0127 119.964 13.0027 116.804 13.9927C109.254 16.3527 101.694 18.7127 94.1443 21.0727C85.0143 23.9227 75.8743 26.7827 66.7443 29.6327C58.8143 32.1127 50.8843 34.5927 42.9543 37.0727C40.3643 37.8827 37.7643 38.6927 35.1743 39.5027C33.9843 39.8727 32.5543 40.1127 31.4343 40.6727C31.3843 40.6927 31.3243 40.7027 31.2643 40.7227C31.6543 40.7727 32.0343 40.8227 32.4243 40.8727C26.6043 37.4827 20.7843 34.0827 14.9543 30.6927C13.2843 29.7227 11.7743 32.3127 13.4443 33.2827C17.0643 35.3927 20.6843 37.5027 24.3043 39.6127C26.2343 40.7327 28.1643 41.8627 30.0843 42.9827C30.8043 43.4027 31.3943 43.7727 32.2643 43.5527C34.0343 43.0927 35.7743 42.4527 37.5143 41.9127C41.1043 40.7927 44.6943 39.6727 48.2743 38.5527C58.6743 35.3027 69.0643 32.0527 79.4643 28.8027C89.8443 25.5627 100.224 22.3127 110.614 19.0727C116.024 17.3827 121.494 15.8227 126.864 13.9927C126.944 13.9627 127.024 13.9427 127.104 13.9227C128.364 13.5327 128.554 11.8827 127.464 11.1827C123.924 8.89269 120.384 6.6127 116.844 4.3227C114.944 3.0927 113.044 1.87271 111.144 0.642708C110.444 0.192708 109.874 -0.1573 109.004 0.0727003C103.544 1.5427 98.1643 3.54271 92.7743 5.27271C82.3543 8.61271 71.9343 11.9427 61.5143 15.2827C51.1243 18.6127 40.7343 21.9327 30.3543 25.2627C24.9243 27.0027 19.4343 28.6227 14.0443 30.4827C13.9643 30.5127 13.8843 30.5327 13.8043 30.5627C11.9643 31.1227 12.7543 34.0227 14.5943 33.4227Z" fill="black"/>
</svg>
